<svg width="418" height="418" viewBox="0 0 418 418" fill="none" xmlns="http://www.w3.org/2000/svg">
<circle cx="209" cy="209" r="209" fill="black"/>
<path d="M277 251.652C277 284.597 253.819 305 206.363 305C184.319 304.842 162.374 302.034 141 296.638L150.12 268.391C161.84 271.264 185.082 276.236 205.815 276.236C231.413 276.236 242.297 267.342 242.297 249.57V243.488C242.297 224.135 234.301 219.695 213.765 219.695H190.904C155.942 219.695 142.672 200.083 142.672 170.012V164.508C142.672 131.061 163.953 113 199.173 113H205.572C227.704 113.289 249.788 115.123 271.665 118.488L265.28 146.508C245.52 143.619 221.29 141.536 208.506 141.536H201.574C183.182 141.536 176.782 149.898 176.782 164.341V169.054C176.782 181.338 180.522 188.134 197.303 188.134H222.369C258.607 188.134 277 202.79 277 239.399V251.652Z" fill="white"/>
</svg>
