<svg width="147" height="37" viewBox="0 0 147 37" fill="none" xmlns="http://www.w3.org/2000/svg">
<path d="M144.283 9.40604C144.762 9.40385 145.24 9.40165 145.719 9.40648C147.007 9.41879 147.113 9.57818 146.645 10.7954C145.874 12.7982 145.104 14.8012 144.328 16.8015C142.582 21.3023 140.832 25.8011 139.084 30.301C138.68 31.34 138.22 32.3473 137.609 33.2728C136.372 35.1483 134.721 36.1516 132.491 36.1257C131.216 36.111 130.009 35.8964 128.835 35.4064C128.088 35.0947 127.751 34.8904 128.213 33.9563C128.398 33.5808 128.517 33.1699 128.685 32.7841C129.132 31.7581 129.179 31.7518 130.168 32.1261C130.616 32.2952 131.076 32.4623 131.543 32.5335C133.001 32.7558 134.112 32.2176 134.895 30.8629C135.408 29.975 135.56 29.2155 135.097 28.1811C132.596 22.5954 130.18 16.9675 127.737 11.3534C127.584 11.0027 127.428 10.6521 127.303 10.2905C127.117 9.75427 127.265 9.47573 127.802 9.42517C128.276 9.38054 128.758 9.41594 129.237 9.41594C131.414 9.42275 130.948 9.1851 131.782 11.1694C133.453 15.1437 135.092 19.1322 136.756 23.11L137.102 23.8527C137.102 23.8527 137.211 24.0912 137.347 24.0912C137.484 24.0912 137.683 24.1154 137.838 23.8241C137.898 23.7111 137.965 23.5438 138.025 23.3813C138.04 23.3158 138.057 23.2532 138.078 23.1971C139.658 18.9601 141.205 14.7099 142.77 10.4668C143.161 9.40604 143.175 9.4111 144.283 9.40604ZM117.422 17.275C118.738 17.758 120.105 18.0803 121.395 18.6499C122.422 19.1032 123.378 19.6579 124.163 20.5049C126.062 22.5558 125.715 26.3879 123.687 28.3519C122.425 29.5749 120.911 30.1911 119.203 30.3089C116.437 30.4993 113.88 29.8079 111.52 28.3022C109.859 27.2422 109.828 27.1384 110.945 25.5487C111.701 24.4717 111.603 23.9883 113.165 25.1058C114.944 26.378 116.932 26.9924 119.115 26.795C119.914 26.7227 120.627 26.4712 121.187 25.8517C122.109 24.8299 121.982 23.4791 120.892 22.6576C120.131 22.0843 119.235 21.8354 118.364 21.5362C117.563 21.2607 116.742 21.0466 115.936 20.7861C115.089 20.5131 114.288 20.1272 113.515 19.6748C110.235 17.7552 110.412 13.5586 112.384 11.3373C113.594 9.97543 115.11 9.28183 116.87 9.1607C117.236 9.13542 117.605 9.15696 117.973 9.15696C120.248 9.07013 122.312 9.81759 124.265 10.9658C125.07 11.44 125.117 11.6834 124.653 12.5372C124.399 13.0064 124.118 13.4599 123.853 13.9231C123.598 14.3694 123.243 14.4455 122.815 14.2322C122.583 14.1164 122.357 13.986 122.133 13.853C120.865 13.1002 119.491 12.6731 118.054 12.55C117.215 12.4781 116.365 12.6498 115.622 13.1345C114.359 13.9581 114.323 15.4448 115.53 16.3502C116.107 16.7828 116.761 17.0328 117.422 17.275ZM100.099 17.8051C99.5921 18.367 99.5858 18.4123 100.057 19.0663C102.321 22.2063 104.594 25.3388 106.858 28.4788C107.112 28.8305 107.59 29.1405 107.358 29.6622C107.13 30.1722 106.609 30.053 106.175 30.0572C105.586 30.0627 104.995 30.0249 104.409 30.0673C103.755 30.1148 103.307 29.8668 102.91 29.3133C101.34 27.1232 99.7371 24.9591 98.1402 22.7904C96.851 21.0398 97.044 21.1403 96.0353 22.1192C95.3616 22.8216 94.5151 23.7353 94.2009 24.2042C94.072 24.4493 93.9657 24.703 93.8853 24.967C93.7084 25.6936 93.7689 26.4534 93.7689 26.4534V27.4242C93.8046 27.8349 93.788 28.2543 93.7689 28.672C93.7629 28.8006 93.7568 28.929 93.752 29.0569C93.7234 29.7936 93.5136 30.0225 92.8228 30.0508C92.1613 30.0781 91.4971 30.079 90.8357 30.0502C90.0947 30.0177 89.973 29.8813 89.9673 29.049C89.9535 27.0801 89.9621 25.111 89.9621 23.1421C89.9619 20.6327 89.9619 18.1232 89.9619 15.6137C89.9619 11.4057 89.9619 7.19752 89.9621 2.98933C89.9623 2.68046 89.9715 2.37158 89.9656 2.06292C89.9564 1.58235 90.2065 1.33437 90.6319 1.32008C91.4041 1.29392 92.1785 1.28051 92.9501 1.31547C93.4971 1.34031 93.7033 1.60258 93.7515 2.20406C93.7731 2.47271 93.7578 2.74421 93.7578 3.01461C93.7578 7.99489 93.752 12.9752 93.7689 17.9554V18.904C93.8125 18.9805 93.8821 19.043 93.9926 19.0821C94.3317 19.2024 94.578 18.6928 94.8238 18.4239C97.371 15.6396 99.9163 12.8534 102.441 10.0469C102.852 9.59005 103.273 9.35746 103.882 9.39395C104.689 9.44232 105.501 9.41 106.311 9.4067C106.655 9.40516 106.994 9.43374 107.151 9.81517C107.307 10.1933 106.982 10.3736 106.791 10.5804C105.381 12.1035 103.958 13.6131 102.545 15.1331C101.723 16.0173 100.908 16.9083 100.099 17.8051ZM65.8958 19.7043C65.907 13.9831 69.9477 8.99846 76.1262 8.99384C82.5691 8.98901 86.4937 14.4907 86.2674 19.743C86.4057 24.8092 82.8032 30.4334 76.0589 30.4544C69.8773 30.4736 65.8848 25.5202 65.8958 19.7043ZM82.4777 19.8228C82.6523 16.4297 79.9594 12.3018 75.6097 12.6623C73.4035 12.8452 71.7693 13.9137 70.6799 15.8663C69.6954 17.6314 69.4403 19.5497 69.9289 21.5566C71.0383 26.1131 75.5454 28.0382 79.093 26.0216C81.4121 24.703 82.3779 22.5039 82.4777 19.8228ZM42.2093 19.7214C42.213 14.3624 46.0511 8.98505 52.427 8.9901C58.7661 8.99494 62.6906 14.2377 62.6099 19.7251C62.6377 25.3592 58.6685 30.4969 52.2859 30.4536C45.9572 30.4107 42.2053 25.1594 42.2093 19.7214ZM57.1072 24.6208C59.1346 22.1812 59.3882 18.5154 57.7324 15.7816C56.5 13.7466 54.752 12.6375 52.0828 12.659C50.7775 12.5819 49.3967 13.1675 48.1867 14.3048C45.5343 16.798 45.2551 21.538 47.6732 24.4827C50.3731 27.7709 54.804 27.3925 57.1072 24.6208ZM24.6394 9.88398C26.1363 8.95295 27.7984 8.45787 29.4804 8.53108C33.0557 8.68694 35.8755 10.3958 37.7428 13.6644C38.8507 15.6036 39.2362 17.7189 39.2081 19.9762C39.1764 22.5116 38.4904 24.7679 36.942 26.7007C34.9959 29.1302 32.4812 30.3032 29.4569 30.5712C24.9966 30.9667 21.3746 29.0477 17.972 26.3747C16.2928 25.0554 14.6003 23.7577 12.8305 22.5732C12.0489 22.0502 11.2181 21.6529 10.3227 21.4032C8.31122 20.8422 6.37583 21.6523 5.28971 23.5115C5.19351 23.6759 5.09081 23.839 5.01829 24.0151C4.80073 24.5434 4.4287 24.7527 3.8825 24.7344C3.07347 24.7074 2.26255 24.7457 1.45352 24.7223C0.489804 24.6944 0.251496 24.3326 0.62625 23.4084C1.89576 20.2772 4.13359 18.3023 7.28044 17.5413C10.1992 16.8353 12.8994 17.4564 15.3182 19.3222C16.7407 20.4192 18.1204 21.5782 19.5593 22.6503C21.5123 24.105 23.5187 25.5122 25.8498 26.1913C28.3084 26.9073 30.7267 26.8161 32.9058 25.1666C34.187 24.1969 35.0317 22.9175 35.2736 21.2728C35.5972 19.072 35.3767 16.971 34.0598 15.1094C31.5768 11.5994 26.7312 11.7696 24.4699 15.4827C23.826 16.5399 23.4223 17.6861 23.4879 18.9766C23.5152 19.5154 23.5225 20.0611 23.472 20.5966C23.4125 21.2258 23.0677 21.4643 22.5705 21.1917C21.6573 20.6916 20.8097 20.0718 19.9965 19.4075C19.5922 19.0773 19.6649 18.5815 19.6647 18.121C19.6645 15.4572 19.6647 12.7929 19.6676 10.1291C19.6676 7.46507 19.6628 4.80104 19.6697 2.13701C19.6727 0.916894 19.7448 0.85292 20.9437 0.83907C21.3117 0.834893 21.6797 0.834893 22.0478 0.83907C23.3024 0.85336 23.4879 1.05056 23.4919 2.41181C23.4973 4.1879 23.4934 5.96378 23.4934 7.73987C23.4934 8.20308 23.4925 8.6665 23.4936 9.1297C23.4965 10.5697 23.5074 10.5881 24.6394 9.88398Z" fill="white"/>
</svg>
