<svg width="20" height="20" viewBox="0 0 20 20" fill="none" xmlns="http://www.w3.org/2000/svg">
<mask id="path-1-inside-1" fill="white">
<path d="M18.3106 16.312H1.68842C1.38396 16.3116 1.09207 16.1905 0.876786 15.9752C0.661501 15.7599 0.540397 15.468 0.540039 15.1636V4.52872C0.540397 4.22429 0.66151 3.93243 0.876803 3.71719C1.0921 3.50195 1.38398 3.3809 1.68842 3.38062H18.31C18.6146 3.38076 18.9066 3.50174 19.122 3.717C19.3374 3.93225 19.4586 4.2242 19.459 4.52872V15.1636C19.4586 15.468 19.3375 15.7599 19.1222 15.9752C18.9069 16.1905 18.615 16.3116 18.3106 16.312ZM1.82284 4.09925C1.66172 4.09939 1.37282 3.98535 1.25886 4.09925C1.14491 4.21315 1.25908 4.17225 1.25886 4.33337L1.30864 15.1289C1.30886 15.29 1.1449 15.4792 1.25885 15.5932C1.37279 15.7071 1.33886 15.5929 1.5 15.5932L18.4249 15.5933C18.5861 15.5933 18.6259 15.7073 18.74 15.5933C18.854 15.4794 18.7397 15.3248 18.74 15.1636L18.7401 4.34577C18.7399 4.18465 18.8541 4.21315 18.7401 4.09925C18.6262 3.98535 18.4712 4.09939 18.31 4.09925H1.82284Z"/>
</mask>
<path d="M18.3106 16.312H1.68842C1.38396 16.3116 1.09207 16.1905 0.876786 15.9752C0.661501 15.7599 0.540397 15.468 0.540039 15.1636V4.52872C0.540397 4.22429 0.66151 3.93243 0.876803 3.71719C1.0921 3.50195 1.38398 3.3809 1.68842 3.38062H18.31C18.6146 3.38076 18.9066 3.50174 19.122 3.717C19.3374 3.93225 19.4586 4.2242 19.459 4.52872V15.1636C19.4586 15.468 19.3375 15.7599 19.1222 15.9752C18.9069 16.1905 18.615 16.3116 18.3106 16.312ZM1.82284 4.09925C1.66172 4.09939 1.37282 3.98535 1.25886 4.09925C1.14491 4.21315 1.25908 4.17225 1.25886 4.33337L1.30864 15.1289C1.30886 15.29 1.1449 15.4792 1.25885 15.5932C1.37279 15.7071 1.33886 15.5929 1.5 15.5932L18.4249 15.5933C18.5861 15.5933 18.6259 15.7073 18.74 15.5933C18.854 15.4794 18.7397 15.3248 18.74 15.1636L18.7401 4.34577C18.7399 4.18465 18.8541 4.21315 18.7401 4.09925C18.6262 3.98535 18.4712 4.09939 18.31 4.09925H1.82284Z" fill="#D98F38"/>
<path d="M18.3106 16.312V18.312L18.3129 18.312L18.3106 16.312ZM1.68842 16.312L1.68607 18.312H1.68842V16.312ZM0.540039 15.1636H-1.45996L-1.45996 15.1659L0.540039 15.1636ZM0.540039 4.52872L-1.45996 4.52637V4.52872H0.540039ZM1.68842 3.38062V1.38061L1.68654 1.38062L1.68842 3.38062ZM18.31 3.38062L18.311 1.38062H18.31V3.38062ZM19.459 4.52872H21.459L21.459 4.52637L19.459 4.52872ZM19.459 15.1636L21.459 15.1659V15.1636H19.459ZM1.82284 4.09925V2.09925L1.82106 2.09925L1.82284 4.09925ZM1.25886 4.33337L-0.741169 4.3307L-0.741114 4.34259L1.25886 4.33337ZM1.30864 15.1289L3.30865 15.1262L3.30862 15.1197L1.30864 15.1289ZM1.5 15.5932L1.49734 17.5932H1.49998L1.5 15.5932ZM18.4249 15.5933L18.4249 17.5933H18.4258L18.4249 15.5933ZM18.74 15.1636L20.74 15.1663V15.1636L18.74 15.1636ZM18.7401 4.34577L20.7401 4.3458L20.7401 4.3431L18.7401 4.34577ZM18.31 4.09925L18.3118 2.09925H18.31V4.09925ZM18.3106 14.312H1.68842V18.312H18.3106V14.312ZM1.69077 14.312C1.91593 14.3122 2.13179 14.4018 2.291 14.561L-0.537427 17.3894C0.0523554 17.9792 0.851991 18.311 1.68607 18.312L1.69077 14.312ZM2.291 14.561C2.45021 14.7202 2.53977 14.9361 2.54004 15.1612L-1.45996 15.1659C-1.45898 16 -1.12721 16.7997 -0.537427 17.3894L2.291 14.561ZM2.54004 15.1636V4.52872H-1.45996V15.1636H2.54004ZM2.54004 4.53107C2.53977 4.75634 2.45016 4.9723 2.29085 5.13157L-0.537244 2.30281C-1.12714 2.89256 -1.45898 3.69224 -1.45996 4.52637L2.54004 4.53107ZM2.29085 5.13157C2.13154 5.29084 1.91556 5.3804 1.6903 5.38061L1.68654 1.38062C0.852405 1.3814 0.0526478 1.71305 -0.537244 2.30281L2.29085 5.13157ZM1.68842 5.38062H18.31V1.38062H1.68842V5.38062ZM18.3091 5.38061C18.0838 5.38051 17.8677 5.29099 17.7083 5.13171L20.5357 2.30228C19.9455 1.71249 19.1454 1.38101 18.311 1.38062L18.3091 5.38061ZM17.7083 5.13171C17.5489 4.97243 17.4592 4.75641 17.459 4.53107L21.459 4.52637C21.458 3.69198 21.1259 2.89208 20.5357 2.30228L17.7083 5.13171ZM17.459 4.52872V15.1636H21.459V4.52872H17.459ZM17.459 15.1612C17.4592 14.9361 17.5488 14.7202 17.708 14.561L20.5364 17.3894C21.1262 16.7997 21.458 16 21.459 15.1659L17.459 15.1612ZM17.708 14.561C17.8672 14.4018 18.0831 14.3122 18.3082 14.312L18.3129 18.312C19.147 18.311 19.9466 17.9792 20.5364 17.3894L17.708 14.561ZM1.82106 2.09925C1.97284 2.09912 2.07936 2.12217 2.02291 2.11243C1.97123 2.10351 2.02729 2.11298 1.94722 2.09901C1.9103 2.09258 1.85339 2.08295 1.78824 2.07423C1.67899 2.05963 1.43313 2.03054 1.14043 2.06472C0.844031 2.09933 0.308011 2.22188 -0.155035 2.68472L2.67276 5.51378C2.26669 5.91967 1.80952 6.01376 1.60437 6.03772C1.40293 6.06124 1.26072 6.0393 1.25808 6.03895C1.24624 6.03736 1.24337 6.03664 1.26005 6.03955C1.26825 6.04098 1.2768 6.04251 1.29147 6.04513C1.30435 6.04743 1.32299 6.05077 1.34263 6.05416C1.38922 6.0622 1.59228 6.09946 1.82461 6.09925L1.82106 2.09925ZM-0.155035 2.68472C-0.200587 2.73025 -0.27709 2.80962 -0.357777 2.91428C-0.433707 3.01276 -0.570269 3.20581 -0.66962 3.48009C-0.783104 3.79339 -0.829414 4.16176 -0.757069 4.54858C-0.69293 4.89151 -0.554984 5.13255 -0.505661 5.21603C-0.479174 5.26085 -0.455476 5.29687 -0.453416 5.30003C-0.445142 5.31273 -0.456365 5.29565 -0.466519 5.27942C-0.49395 5.23558 -0.544283 5.15102 -0.593322 5.03741C-0.700651 4.78875 -0.741417 4.5434 -0.741134 4.3307L3.25886 4.33603C3.25925 4.04277 3.2043 3.74212 3.07918 3.45226C3.02125 3.31804 2.96113 3.2164 2.92434 3.15762C2.90951 3.13392 2.89373 3.1099 2.89771 3.11601C2.89773 3.11605 2.90237 3.12315 2.90847 3.13277C2.91478 3.14272 2.92536 3.15965 2.93809 3.18118C2.98027 3.25258 3.11286 3.48228 3.17476 3.81322C3.24486 4.18804 3.19942 4.54376 3.09126 4.84236C2.99724 5.10194 2.87045 5.27824 2.81009 5.35653C2.74497 5.441 2.68983 5.49672 2.67276 5.51378L-0.155035 2.68472ZM-0.741114 4.34259L-0.691338 15.1381L3.30862 15.1197L3.25884 4.32415L-0.741114 4.34259ZM-0.691357 15.1316C-0.691723 14.857 -0.625791 14.6621 -0.619082 14.6412C-0.613088 14.6226 -0.608655 14.611 -0.617424 14.6352C-0.621917 14.6476 -0.641315 14.7005 -0.659786 14.7569C-0.688361 14.8443 -0.788046 15.1466 -0.781085 15.5314C-0.772586 16.0012 -0.605661 16.5571 -0.155365 17.0074L2.67306 14.1789C2.84832 14.3542 2.99358 14.5703 3.09046 14.8175C3.18513 15.0592 3.21507 15.2828 3.21826 15.459C3.22391 15.7712 3.14383 15.9949 3.14198 16.0005C3.13687 16.0162 3.1326 16.0274 3.1433 15.9979C3.14971 15.9802 3.16938 15.9264 3.18894 15.8656C3.22277 15.7603 3.30911 15.4813 3.30864 15.1262L-0.691357 15.1316ZM-0.155365 17.0074C-0.106046 17.0567 -0.0221628 17.137 0.0888776 17.221C0.195764 17.3019 0.391919 17.4356 0.666889 17.5309C0.976412 17.6382 1.32697 17.6763 1.68755 17.6132C2.00981 17.5568 2.2401 17.4353 2.3268 17.3876C2.37276 17.3622 2.40916 17.3398 2.41538 17.336C2.4319 17.3259 2.41482 17.3364 2.40323 17.3433C2.36647 17.3651 2.28803 17.4099 2.18209 17.4542C1.94753 17.5523 1.71123 17.5934 1.49734 17.5932L1.50266 13.5932C1.2082 13.5928 0.915715 13.6481 0.638635 13.764C0.511436 13.8172 0.415153 13.8718 0.362621 13.9029C0.343148 13.9145 0.318707 13.9295 0.328213 13.9237C0.329364 13.923 0.336973 13.9184 0.347331 13.9122C0.357941 13.9059 0.375067 13.8959 0.396647 13.8841C0.470396 13.8434 0.688477 13.7273 0.997924 13.6731C1.34569 13.6123 1.68282 13.6495 1.97699 13.7515C2.2366 13.8415 2.41545 13.9654 2.50175 14.0307C2.59221 14.0991 2.65223 14.1581 2.67306 14.1789L-0.155365 17.0074ZM1.49998 17.5932L18.4249 17.5933L18.4249 13.5933L1.50002 13.5932L1.49998 17.5932ZM18.4258 17.5933C18.088 17.5935 17.5709 17.4061 17.9882 17.5401C18.1659 17.5973 18.5966 17.7144 19.131 17.5864C19.6432 17.4638 19.9795 17.182 20.1535 17.0082L17.3264 14.1785C17.4433 14.0616 17.7319 13.8084 18.1996 13.6964C18.6894 13.5791 19.0787 13.6891 19.212 13.732C19.2654 13.7491 19.314 13.7684 19.2806 13.7556C19.2663 13.7501 19.2046 13.7262 19.1283 13.7022C18.9545 13.6473 18.715 13.5932 18.424 13.5933L18.4258 17.5933ZM20.1535 17.0082C20.4909 16.6711 20.6928 16.2517 20.7625 15.8194C20.8232 15.443 20.7698 15.137 20.7455 15.0123C20.7318 14.9427 20.7173 14.8838 20.7115 14.8604C20.7023 14.8231 20.7049 14.8338 20.7056 14.8371C20.7083 14.8488 20.7402 14.9815 20.74 15.1663L16.74 15.1609C16.7396 15.4263 16.7857 15.6387 16.8062 15.7284C16.8159 15.7707 16.8282 15.8197 16.8284 15.8204C16.832 15.8348 16.8263 15.8132 16.8198 15.7801C16.8097 15.7285 16.7635 15.4925 16.8136 15.1822C16.8727 14.816 17.046 14.4586 17.3264 14.1785L20.1535 17.0082ZM20.74 15.1636L20.7401 4.3458L16.7401 4.34573L16.74 15.1636L20.74 15.1636ZM20.7401 4.3431C20.7404 4.55778 20.6991 4.78765 20.6075 5.01174C20.5665 5.11207 20.5255 5.1861 20.5074 5.21779C20.4573 5.30574 20.5324 5.17484 20.5545 5.13262C20.6008 5.04429 20.7115 4.8218 20.7629 4.51391C20.82 4.17131 20.787 3.833 20.6842 3.52671C20.5919 3.25164 20.4604 3.05326 20.376 2.94015C20.2896 2.82429 20.2063 2.73698 20.154 2.68472L17.3262 5.51378C17.3024 5.49 17.2405 5.42671 17.1697 5.33173C17.1009 5.23948 16.9792 5.05883 16.8921 4.79962C16.7947 4.50919 16.7625 4.18489 16.8174 3.85574C16.8665 3.56129 16.9719 3.35169 17.011 3.27698C17.0318 3.23729 17.0493 3.20767 17.0498 3.20674C17.0571 3.1943 17.0418 3.22035 17.0327 3.2362C17.0053 3.28429 16.9545 3.37675 16.9046 3.49885C16.7953 3.76647 16.7397 4.0532 16.7401 4.34843L20.7401 4.3431ZM20.154 2.68472C19.8163 2.34715 19.3968 2.14613 18.9656 2.07667C18.5901 2.01618 18.2847 2.06925 18.1602 2.09353C18.0905 2.1071 18.0317 2.12162 18.0081 2.12743C17.9707 2.13666 17.9812 2.1341 17.9843 2.1334C17.9954 2.13086 18.1276 2.09909 18.3118 2.09925L18.3083 6.09925C18.573 6.09948 18.785 6.05351 18.8741 6.03318C18.9161 6.02359 18.9652 6.01124 18.9657 6.01113C18.98 6.00759 18.9584 6.01321 18.9254 6.01965C18.874 6.02968 18.6388 6.0756 18.3294 6.02576C17.9644 5.96696 17.607 5.7944 17.3262 5.51378L20.154 2.68472ZM18.31 2.09925H1.82284V6.09925H18.31V2.09925Z" fill="#D98F38" mask="url(#path-1-inside-1)"/>
<mask id="path-3-inside-2" fill="white">
<path d="M9.99976 10.5763C9.72993 10.5769 9.46725 10.4896 9.25138 10.3277L0.953812 4.08121C0.896468 4.03821 0.858558 3.97418 0.848421 3.90322C0.838283 3.83226 0.85675 3.76018 0.899758 3.70284C0.942766 3.64549 1.00679 3.60758 1.07775 3.59744C1.14871 3.58731 1.22079 3.60577 1.27814 3.64878L9.57543 9.89552C9.69764 9.98685 9.84611 10.0362 9.99868 10.0362C10.1512 10.0362 10.2997 9.98685 10.4219 9.89552L18.7206 3.64878C18.749 3.62749 18.7813 3.61199 18.8157 3.60318C18.85 3.59437 18.8858 3.59242 18.921 3.59744C18.9561 3.60246 18.9899 3.61435 19.0204 3.63244C19.051 3.65052 19.0777 3.67444 19.0989 3.70284C19.1202 3.73123 19.1357 3.76354 19.1445 3.79792C19.1534 3.8323 19.1553 3.86808 19.1503 3.90322C19.1453 3.93835 19.1334 3.97216 19.1153 4.0027C19.0972 4.03324 19.0733 4.05992 19.0449 4.08121L10.7476 10.328C10.5318 10.4896 10.2694 10.5768 9.99976 10.5763Z"/>
</mask>
<path d="M9.99976 10.5763C9.72993 10.5769 9.46725 10.4896 9.25138 10.3277L0.953812 4.08121C0.896468 4.03821 0.858558 3.97418 0.848421 3.90322C0.838283 3.83226 0.85675 3.76018 0.899758 3.70284C0.942766 3.64549 1.00679 3.60758 1.07775 3.59744C1.14871 3.58731 1.22079 3.60577 1.27814 3.64878L9.57543 9.89552C9.69764 9.98685 9.84611 10.0362 9.99868 10.0362C10.1512 10.0362 10.2997 9.98685 10.4219 9.89552L18.7206 3.64878C18.749 3.62749 18.7813 3.61199 18.8157 3.60318C18.85 3.59437 18.8858 3.59242 18.921 3.59744C18.9561 3.60246 18.9899 3.61435 19.0204 3.63244C19.051 3.65052 19.0777 3.67444 19.0989 3.70284C19.1202 3.73123 19.1357 3.76354 19.1445 3.79792C19.1534 3.8323 19.1553 3.86808 19.1503 3.90322C19.1453 3.93835 19.1334 3.97216 19.1153 4.0027C19.0972 4.03324 19.0733 4.05992 19.0449 4.08121L10.7476 10.328C10.5318 10.4896 10.2694 10.5768 9.99976 10.5763Z" fill="#D98F38"/>
<path d="M9.25138 10.3277L8.04851 11.9255L8.05138 11.9277L9.25138 10.3277ZM0.953812 4.08121L2.15668 2.48337L2.15381 2.48121L0.953812 4.08121ZM1.27814 3.64878L2.48107 2.05098L2.47813 2.04878L1.27814 3.64878ZM9.57543 9.89552L8.3725 11.4933L8.37819 11.4976L9.57543 9.89552ZM9.99868 10.0362V12.0362V10.0362ZM10.4219 9.89552L11.6192 11.4976L11.6247 11.4934L10.4219 9.89552ZM18.7206 3.64878L17.5206 2.04878L17.5178 2.05089L18.7206 3.64878ZM19.0449 4.08121L17.8449 2.48121L17.842 2.48341L19.0449 4.08121ZM10.7476 10.328L11.947 11.9284L11.9505 11.9258L10.7476 10.328ZM9.99585 8.57634C10.1601 8.57602 10.32 8.62914 10.4514 8.72769L8.05138 11.9277C8.61451 12.35 9.29976 12.5777 10.0037 12.5763L9.99585 8.57634ZM10.4542 8.72984L2.15668 2.48337L-0.249057 5.67906L8.04851 11.9255L10.4542 8.72984ZM2.15381 2.48121C2.52081 2.75646 2.76344 3.16623 2.82832 3.62038L-1.13148 4.18606C-1.04633 4.78212 -0.727877 5.31995 -0.246186 5.68121L2.15381 2.48121ZM2.82832 3.62038C2.8932 4.07452 2.77501 4.53583 2.49976 4.90284L-0.70024 2.50283C-1.06151 2.98452 -1.21663 3.59 -1.13148 4.18606L2.82832 3.62038ZM2.49976 4.90284C2.2245 5.26984 1.81473 5.51247 1.36059 5.57734L0.79491 1.61755C0.198853 1.7027 -0.33897 2.02114 -0.70024 2.50283L2.49976 4.90284ZM1.36059 5.57734C0.906456 5.64222 0.445143 5.52404 0.0781385 5.24878L2.47813 2.04878C1.99644 1.68751 1.39097 1.53239 0.79491 1.61755L1.36059 5.57734ZM0.0752092 5.24658L8.37251 11.4933L10.7784 8.29772L2.48106 2.05098L0.0752092 5.24658ZM8.37819 11.4976C8.84609 11.8473 9.41455 12.0362 9.99868 12.0362V8.0362C10.2777 8.0362 10.5492 8.12645 10.7727 8.29346L8.37819 11.4976ZM9.99868 12.0362C10.5828 12.0362 11.1513 11.8473 11.6192 11.4976L9.22468 8.29346C9.44816 8.12644 9.71968 8.0362 9.99868 8.0362V12.0362ZM11.6247 11.4934L19.9234 5.24668L17.5178 2.05089L9.21912 8.29763L11.6247 11.4934ZM19.9206 5.24878C19.7388 5.38508 19.532 5.48424 19.312 5.54061L18.3193 1.66576C18.0305 1.73974 17.7591 1.86989 17.5206 2.04878L19.9206 5.24878ZM19.312 5.54061C19.092 5.59699 18.863 5.60947 18.6381 5.57734L19.2038 1.61755C18.9087 1.57538 18.6081 1.59176 18.3193 1.66576L19.312 5.54061ZM18.6381 5.57734C18.4132 5.54522 18.1969 5.46912 18.0014 5.35339L20.0394 1.91149C19.7829 1.75959 19.4989 1.65971 19.2038 1.61755L18.6381 5.57734ZM18.0014 5.35339C17.806 5.23765 17.6352 5.08455 17.4989 4.90284L20.6989 2.50283C20.5201 2.26433 20.296 2.06339 20.0394 1.91149L18.0014 5.35339ZM17.4989 4.90284C17.3627 4.72114 17.2635 4.51435 17.2071 4.29428L21.082 3.30156C21.008 3.01272 20.8778 2.74132 20.6989 2.50283L17.4989 4.90284ZM17.2071 4.29428C17.1507 4.07421 17.1383 3.84521 17.1704 3.62038L21.1302 4.18606C21.1723 3.89096 21.156 3.5904 21.082 3.30156L17.2071 4.29428ZM17.1704 3.62038C17.2025 3.39555 17.2786 3.1792 17.3943 2.98371L20.8362 5.02169C20.9882 4.76511 21.088 4.48116 21.1302 4.18606L17.1704 3.62038ZM17.3943 2.98371C17.5101 2.78825 17.6632 2.6175 17.8449 2.48121L20.2449 5.68121C20.4834 5.50234 20.6843 5.27823 20.8362 5.02169L17.3943 2.98371ZM17.842 2.48341L9.54467 8.73016L11.9505 11.9258L20.2478 5.67901L17.842 2.48341ZM9.54817 8.72752C9.6795 8.6291 9.83926 8.57604 10.0034 8.57634L9.99614 12.5763C10.6995 12.5776 11.3842 12.3502 11.947 11.9284L9.54817 8.72752Z" fill="#D98F38" mask="url(#path-3-inside-2)"/>
<path d="M0.995858 15.7009L0.995874 15.7009L0.995858 15.7009Z" fill="#D98F38" stroke="#D98F38" stroke-width="2"/>
<mask id="path-6-inside-3" fill="white">
<path d="M19.0045 15.9712C18.9405 15.9713 18.8786 15.9486 18.8299 15.9071L11.3758 9.59174C11.3488 9.56879 11.3265 9.54074 11.3102 9.50917C11.294 9.47761 11.2841 9.44316 11.2812 9.40779C11.2783 9.37241 11.2823 9.33681 11.2932 9.30301C11.304 9.26921 11.3214 9.23787 11.3443 9.21079C11.3673 9.18371 11.3953 9.16142 11.4269 9.14518C11.4585 9.12894 11.4929 9.11908 11.5283 9.11615C11.5637 9.11323 11.5993 9.1173 11.6331 9.12814C11.6669 9.13897 11.6982 9.15636 11.7253 9.17931L19.1793 15.4947C19.2216 15.5305 19.2518 15.5784 19.266 15.6319C19.2801 15.6855 19.2774 15.742 19.2584 15.794C19.2393 15.846 19.2047 15.8909 19.1593 15.9226C19.1139 15.9542 19.0599 15.9712 19.0045 15.9712Z"/>
</mask>
<path d="M19.0045 15.9712C18.9405 15.9713 18.8786 15.9486 18.8299 15.9071L11.3758 9.59174C11.3488 9.56879 11.3265 9.54074 11.3102 9.50917C11.294 9.47761 11.2841 9.44316 11.2812 9.40779C11.2783 9.37241 11.2823 9.33681 11.2932 9.30301C11.304 9.26921 11.3214 9.23787 11.3443 9.21079C11.3673 9.18371 11.3953 9.16142 11.4269 9.14518C11.4585 9.12894 11.4929 9.11908 11.5283 9.11615C11.5637 9.11323 11.5993 9.1173 11.6331 9.12814C11.6669 9.13897 11.6982 9.15636 11.7253 9.17931L19.1793 15.4947C19.2216 15.5305 19.2518 15.5784 19.266 15.6319C19.2801 15.6855 19.2774 15.742 19.2584 15.794C19.2393 15.846 19.2047 15.8909 19.1593 15.9226C19.1139 15.9542 19.0599 15.9712 19.0045 15.9712Z" fill="#D98F38"/>
<path d="M18.8299 15.9071L20.1266 14.3845L20.1227 14.3812L18.8299 15.9071ZM11.3758 9.59174L10.0829 11.1176L10.083 11.1177L11.3758 9.59174ZM11.7253 9.17931L10.4324 10.7052L10.4324 10.7053L11.7253 9.17931ZM19.1793 15.4947L17.8865 17.0207L17.8865 17.0207L19.1793 15.4947ZM19.0001 13.9712C19.4129 13.9703 19.8124 14.1168 20.1266 14.3845L17.5332 17.4298C17.9448 17.7804 18.4682 17.9724 19.0089 17.9712L19.0001 13.9712ZM20.1227 14.3812L12.6687 8.06578L10.083 11.1177L17.537 17.4331L20.1227 14.3812ZM12.6687 8.06584C12.8421 8.21268 12.9847 8.39222 13.0887 8.5942L9.53178 10.4241C9.66817 10.6893 9.85545 10.9249 10.0829 11.1176L12.6687 8.06584ZM13.0887 8.5942C13.1926 8.79619 13.2557 9.01666 13.2744 9.24304L9.28799 9.57253C9.31255 9.86966 9.39539 10.159 9.53178 10.4241L13.0887 8.5942ZM13.2744 9.24304C13.2931 9.46942 13.267 9.69727 13.1977 9.91357L9.38865 8.69245C9.29764 8.97635 9.26343 9.2754 9.28799 9.57253L13.2744 9.24304ZM13.1977 9.91357C13.1284 10.1299 13.0171 10.3304 12.8702 10.5037L9.81845 7.91788C9.6257 8.14536 9.47966 8.40856 9.38865 8.69245L13.1977 9.91357ZM12.8702 10.5037C12.7234 10.677 12.5439 10.8197 12.3419 10.9236L10.5119 7.36674C10.2468 7.50313 10.0112 7.69041 9.81845 7.91788L12.8702 10.5037ZM12.3419 10.9236C12.1399 11.0275 11.9194 11.0906 11.693 11.1094L11.3636 7.12295C11.0664 7.14751 10.777 7.23035 10.5119 7.36674L12.3419 10.9236ZM11.693 11.1094C11.4667 11.1281 11.2388 11.102 11.0225 11.0327L12.2436 7.22361C11.9597 7.1326 11.6607 7.09839 11.3636 7.12295L11.693 11.1094ZM11.0225 11.0327C10.8062 10.9633 10.6057 10.852 10.4324 10.7052L13.0182 7.65341C12.7908 7.46069 12.5276 7.31464 12.2436 7.22361L11.0225 11.0327ZM10.4324 10.7053L17.8865 17.0207L20.4722 13.9687L13.0181 7.65335L10.4324 10.7053ZM17.8865 17.0207C17.6162 16.7917 17.4227 16.4851 17.3322 16.1424L21.1997 15.1214C21.081 14.6717 20.827 14.2693 20.4721 13.9687L17.8865 17.0207ZM17.3322 16.1424C17.2418 15.7998 17.2587 15.4376 17.3808 15.105L21.1359 16.4831C21.2962 16.0465 21.3184 15.5711 21.1997 15.1214L17.3322 16.1424ZM17.3808 15.105C17.5029 14.7723 17.7242 14.4852 18.0148 14.2824L20.3038 17.5627C20.6852 17.2966 20.9757 16.9197 21.1359 16.4831L17.3808 15.105ZM18.0148 14.2824C18.3054 14.0796 18.6513 13.971 19.0057 13.9712L19.0033 17.9712C19.4684 17.9715 19.9224 17.8289 20.3038 17.5627L18.0148 14.2824Z" fill="#D98F38" mask="url(#path-6-inside-3)"/>
</svg>
