<svg version="1.0" xmlns="http://www.w3.org/2000/svg" width="90" height="90" viewBox="0 0 90 90"><path d="M2.2 2.3C0 4.6 0 4.9 0 45.1v40.6l2.3 2.2C4.6 90 5.4 90 21.5 89.8c12.4-.2 16.9-.6 17.3-1.6.3-.9-3.3-1.2-15.7-1.2C8.3 87 6.8 86.8 5 85c-1.9-1.9-2-3.3-2-40S3.1 6.9 5 5c1.9-1.9 3.3-2 40-2s38.1.1 40 2c1.9 1.9 2 3.3 2 40s-.1 38.1-2 40c-1.8 1.8-3.3 2-18.1 2-12.4 0-16 .3-15.7 1.2.4 1 4.9 1.4 17.3 1.6 16.1.2 16.9.2 19.2-1.9l2.3-2.2V4.3l-2.3-2.1C85.4 0 85.1 0 44.9 0H4.3L2.2 2.3z"/><path d="M22.5 18.2c-.3.7-.4 13.2-.3 27.8l.3 26.5 6.8.3 6.7.3V57.2l9.4-.4c8.6-.3 9.8-.6 13.7-3.3 11.5-8.2 11.4-25-.3-33.1-4.1-2.9-4.4-2.9-20-3.2-12.5-.3-15.9-.1-16.3 1zm33.8 4.7c10.9 6.7 9.9 23.9-1.7 29.2-3 1.3-6.5 1.9-12.8 1.9H33v16h-7V19.8l13.3.4c11.7.3 13.7.6 17 2.7z"/><path d="M33.4 28.3c-.3.8-.4 5.2-.2 9.8l.3 8.4 7.4.3c11.2.4 16.1-2.4 16.1-9.6 0-4.3-2.4-7.8-6.2-9.1-4.6-1.6-16.7-1.4-17.4.2zM52 33c2.4 2.4 2.5 4.8.4 7.8-1.3 1.9-2.4 2.2-9 2.2H36V31h7c5.7 0 7.4.4 9 2zM43.3 88.2c.2.7 1 1.3 1.7 1.3s1.5-.6 1.8-1.3c.2-.7-.5-1.2-1.8-1.2s-2 .5-1.7 1.2z"/></svg>