<svg width="173" height="64" viewBox="0 0 173 64" fill="none" xmlns="http://www.w3.org/2000/svg">
<path d="M10.36 15.64L12.84 28.48L16.16 11.92C16.56 9.89333 17.64 8.88 19.4 8.88C21.1867 8.88 22.2667 9.8 22.64 11.64V11.6C22.96 13.3067 23.24 14.84 23.48 16.2C23.7467 17.56 24 18.8933 24.24 20.2C24.5067 21.48 24.76 22.8 25 24.16C25.2667 25.52 25.56 27.0533 25.88 28.76L28.44 16.24C28.68 15.12 28.8 14.2933 28.8 13.76C28.8 13.0667 28.48 12.72 27.84 12.72C27.7067 12.72 27.56 12.7333 27.4 12.76C27.2667 12.76 27.1067 12.76 26.92 12.76C26.7333 12.7867 26.5333 12.8 26.32 12.8C26.1333 12.8 25.9733 12.8 25.84 12.8C24.2933 12.8 23.52 12.1867 23.52 10.96C23.52 9.76 24.28 9.16 25.8 9.16C26.04 9.16 26.2667 9.17333 26.48 9.2C26.6933 9.2 26.9067 9.21333 27.12 9.24C28.1867 9.37333 29.0533 9.48 29.72 9.56C30.4133 9.61333 30.9067 9.64 31.2 9.64C31.6267 9.64 32.3467 9.56 33.36 9.4C34.4 9.24 35.2 9.16 35.76 9.16C37.1467 9.16 37.84 9.78667 37.84 11.04C37.84 12.2133 37.16 12.8 35.8 12.8C35.72 12.8 35.6 12.8 35.44 12.8C35.3067 12.8 35.1733 12.7867 35.04 12.76C34.9067 12.7333 34.7867 12.72 34.68 12.72C34.5733 12.6933 34.4933 12.68 34.44 12.68C34.1467 12.68 33.92 12.8133 33.76 13.08C33.7067 13.24 33.6133 13.5333 33.48 13.96C33.3733 14.3867 33.2267 14.9467 33.04 15.64L28.76 33.96C28.3067 35.64 27.2933 36.48 25.72 36.48C24.04 36.48 22.9867 35.48 22.56 33.48L19.32 16.48L15.72 34C15.5333 34.7733 15.2 35.3867 14.72 35.84C14.2667 36.2667 13.6533 36.48 12.88 36.48C11.3333 36.48 10.3467 35.64 9.92 33.96L5.36 14.84C5.17333 14.12 4.94667 13.6 4.68 13.28C4.41333 12.9333 4.02667 12.76 3.52 12.76H3.24L2.4 12.84C1.14667 12.84 0.52 12.24 0.52 11.04C0.52 9.78667 1.18667 9.16 2.52 9.16C2.94667 9.16 3.4 9.2 3.88 9.28C5.24 9.52 6.54667 9.64 7.8 9.64C8.09333 9.64 8.57333 9.61333 9.24 9.56C9.93333 9.48 10.8267 9.37333 11.92 9.24C12.1333 9.21333 12.3333 9.2 12.52 9.2C12.7067 9.17333 12.9067 9.16 13.12 9.16C14.48 9.16 15.16 9.76 15.16 10.96C15.16 12.24 14.3733 12.88 12.8 12.88C12.6667 12.88 12.4933 12.88 12.28 12.88C12.0933 12.8533 11.8933 12.8267 11.68 12.8C11.4667 12.7733 11.2667 12.76 11.08 12.76C10.8933 12.7333 10.7733 12.72 10.72 12.72C10.24 12.72 10 12.9733 10 13.48C10 13.72 10.04 14.04 10.12 14.44L10.36 15.64ZM49.8538 36.84C46.2538 36.84 43.3871 35.5467 41.2538 32.96C39.2004 30.3733 38.1738 26.9333 38.1738 22.64C38.1738 18.32 39.2138 14.88 41.2938 12.32C43.4004 9.76 46.3204 8.48 50.0538 8.48C53.6538 8.48 56.4804 9.72 58.5338 12.2C60.6404 14.68 61.6938 17.9867 61.6938 22.12C61.6938 26.6 60.6271 30.16 58.4938 32.8C56.4671 35.4933 53.5871 36.84 49.8538 36.84ZM49.9338 12.32C47.6671 12.32 45.9204 13.2133 44.6938 15C43.4671 16.7867 42.8538 19.32 42.8538 22.6C42.8538 25.9333 43.4671 28.5067 44.6938 30.32C45.9204 32.1067 47.6538 33 49.8938 33C52.0271 33 53.7338 32.0933 55.0138 30.28C56.3471 28.44 57.0138 25.84 57.0138 22.48C57.0138 19.2 56.4004 16.6933 55.1738 14.96C53.9738 13.2 52.2271 12.32 49.9338 12.32ZM76.0647 36.84C72.4647 36.84 69.598 35.5467 67.4647 32.96C65.4114 30.3733 64.3847 26.9333 64.3847 22.64C64.3847 18.32 65.4247 14.88 67.5047 12.32C69.6114 9.76 72.5314 8.48 76.2647 8.48C79.8647 8.48 82.6914 9.72 84.7447 12.2C86.8514 14.68 87.9047 17.9867 87.9047 22.12C87.9047 26.6 86.838 30.16 84.7047 32.8C82.678 35.4933 79.798 36.84 76.0647 36.84ZM76.1447 12.32C73.878 12.32 72.1314 13.2133 70.9047 15C69.678 16.7867 69.0647 19.32 69.0647 22.6C69.0647 25.9333 69.678 28.5067 70.9047 30.32C72.1314 32.1067 73.8647 33 76.1047 33C78.238 33 79.9447 32.0933 81.2247 30.28C82.558 28.44 83.2247 25.84 83.2247 22.48C83.2247 19.2 82.6114 16.6933 81.3847 14.96C80.1847 13.2 78.438 12.32 76.1447 12.32ZM96.9956 35.84H95.8756C95.4223 35.84 94.7156 35.8933 93.7556 36C92.7956 36.1067 92.1156 36.16 91.7156 36.16H91.5956C91.0356 36.16 90.7556 36 90.7556 35.68C90.7556 35.28 91.0356 35.08 91.5956 35.08C91.6756 35.08 92.009 35.1067 92.5956 35.16C93.1823 35.2133 93.5956 35.24 93.8356 35.24C94.6623 35.24 95.209 34.9733 95.4756 34.44C95.6623 34.0933 95.769 33.4533 95.7956 32.52L95.8756 29.52L95.7956 12.8C95.769 11.8667 95.6623 11.2267 95.4756 10.88C95.209 10.3467 94.6623 10.08 93.8356 10.08C93.5956 10.08 93.2223 10.1067 92.7156 10.16C92.2356 10.1867 91.8756 10.2 91.6356 10.2C91.049 10.2 90.7556 10.0267 90.7556 9.68C90.7556 9.33333 91.0356 9.16 91.5956 9.16H91.7156L92.6356 9.24C94.4756 9.4 95.5556 9.48 95.8756 9.48H96.9956C97.289 9.48 98.4356 9.41333 100.436 9.28C101.636 9.2 102.716 9.16 103.676 9.16C106.102 9.16 108.049 9.42667 109.516 9.96C111.009 10.4667 112.276 11.3067 113.316 12.48C115.582 15.0667 116.716 18.4933 116.716 22.76C116.716 26.04 115.996 28.8533 114.556 31.2C113.116 33.52 111.209 34.9867 108.836 35.6C107.396 35.9733 105.636 36.16 103.556 36.16C102.809 36.16 101.702 36.1067 100.236 36C98.7956 35.8933 97.7156 35.84 96.9956 35.84ZM103.236 10.08C102.249 10.08 101.516 10.1067 101.036 10.16L98.9156 10.4C98.249 10.48 97.7956 10.6 97.5556 10.76C97.3423 10.92 97.209 11.2133 97.1556 11.64C97.049 12.6267 96.9956 13.8133 96.9956 15.2V32.84C96.9956 33.9333 97.329 34.6133 97.9956 34.88C98.689 35.1467 100.462 35.28 103.316 35.28C105.662 35.28 107.476 35.08 108.756 34.68C110.622 34.0933 112.142 32.9467 113.316 31.24C114.756 29.16 115.476 26.4267 115.476 23.04C115.476 19.76 114.902 17.0667 113.756 14.96C112.636 12.8533 111.022 11.48 108.916 10.84C107.289 10.3333 105.396 10.08 103.236 10.08ZM131.937 8.56C135.404 8.56 138.217 9.86667 140.377 12.48C142.537 15.0667 143.617 18.4667 143.617 22.68C143.617 26.8667 142.577 30.2667 140.497 32.88C138.417 35.4667 135.697 36.76 132.337 36.76C128.791 36.76 125.937 35.48 123.777 32.92C121.644 30.3333 120.577 26.9333 120.577 22.72C120.577 18.5333 121.631 15.1333 123.737 12.52C125.844 9.88 128.577 8.56 131.937 8.56ZM132.097 35.88C135.191 35.88 137.671 34.68 139.537 32.28C141.431 29.8533 142.377 26.6667 142.377 22.72C142.377 18.8267 141.391 15.6533 139.417 13.2C137.471 10.72 134.951 9.48 131.857 9.48C128.871 9.48 126.444 10.7067 124.577 13.16C122.711 15.5867 121.777 18.7333 121.777 22.6C121.777 26.6267 122.711 29.8533 124.577 32.28C126.471 34.68 128.977 35.88 132.097 35.88ZM158.851 8.56C162.318 8.56 165.131 9.86667 167.291 12.48C169.451 15.0667 170.531 18.4667 170.531 22.68C170.531 26.8667 169.491 30.2667 167.411 32.88C165.331 35.4667 162.611 36.76 159.251 36.76C155.705 36.76 152.851 35.48 150.691 32.92C148.558 30.3333 147.491 26.9333 147.491 22.72C147.491 18.5333 148.545 15.1333 150.651 12.52C152.758 9.88 155.491 8.56 158.851 8.56ZM159.011 35.88C162.105 35.88 164.585 34.68 166.451 32.28C168.345 29.8533 169.291 26.6667 169.291 22.72C169.291 18.8267 168.305 15.6533 166.331 13.2C164.385 10.72 161.865 9.48 158.771 9.48C155.785 9.48 153.358 10.7067 151.491 13.16C149.625 15.5867 148.691 18.7333 148.691 22.6C148.691 26.6267 149.625 29.8533 151.491 32.28C153.385 34.68 155.891 35.88 159.011 35.88Z" fill="white"/>
<path d="M45.928 50.128C45.9067 50.3413 45.8853 50.528 45.864 50.688C45.8533 50.848 45.8427 51.0133 45.832 51.184C45.8213 51.344 45.8107 51.5253 45.8 51.728C45.7893 51.92 45.784 52.16 45.784 52.448C46.0613 52.1707 46.3493 51.984 46.648 51.888C46.9467 51.792 47.32 51.744 47.768 51.744C48.8667 51.744 49.736 52.1227 50.376 52.88C51.016 53.6373 51.336 54.624 51.336 55.84C51.336 56.48 51.24 57.072 51.048 57.616C50.8667 58.16 50.6213 58.6347 50.312 59.04C49.9813 59.4453 49.5867 59.7493 49.128 59.952C48.6693 60.1547 48.152 60.256 47.576 60.256C46.7547 60.256 46.0987 60.0427 45.608 59.616C45.5227 59.9573 45.272 60.128 44.856 60.128C44.3227 60.128 44.056 59.8027 44.056 59.152C44.056 59.0773 44.056 59.008 44.056 58.944C44.056 58.88 44.0613 58.8267 44.072 58.784C44.072 58.6667 44.072 58.5493 44.072 58.432C44.072 58.3147 44.0773 58.1973 44.088 58.08L44.136 56.912C44.136 56.6987 44.1413 56.448 44.152 56.16C44.1627 55.8613 44.168 55.6053 44.168 55.392L44.136 51.344C44.1253 51.056 44.104 50.864 44.072 50.768C44.0507 50.6613 44.008 50.608 43.944 50.608C43.9013 50.608 43.7787 50.6293 43.576 50.672C43.5227 50.6827 43.4693 50.688 43.416 50.688C43.3627 50.688 43.3093 50.688 43.256 50.688C42.744 50.688 42.488 50.4587 42.488 50C42.488 49.52 42.776 49.28 43.352 49.28C43.4053 49.28 43.464 49.28 43.528 49.28C43.6027 49.28 43.6613 49.2853 43.704 49.296L44.008 49.344C44.0293 49.344 44.056 49.3493 44.088 49.36C44.12 49.36 44.1467 49.36 44.168 49.36C44.2213 49.3707 44.264 49.376 44.296 49.376C44.3387 49.376 44.376 49.376 44.408 49.376C44.4507 49.376 44.5147 49.3707 44.6 49.36C44.6853 49.3493 44.776 49.3333 44.872 49.312C45.032 49.28 45.1867 49.264 45.336 49.264C45.7307 49.264 45.928 49.4773 45.928 49.904V50.128ZM45.912 54.56C45.8373 54.8587 45.8 55.296 45.8 55.872C45.8 56.8107 45.8747 57.472 46.024 57.856C46.312 58.5067 46.8293 58.832 47.576 58.832C48.2053 58.832 48.696 58.576 49.048 58.064C49.4107 57.552 49.592 56.864 49.592 56C49.592 55.1147 49.4213 54.4213 49.08 53.92C48.7387 53.4187 48.2693 53.168 47.672 53.168C47.4587 53.168 47.256 53.2053 47.064 53.28C46.872 53.344 46.696 53.44 46.536 53.568C46.376 53.6853 46.2427 53.8293 46.136 54C46.0293 54.1707 45.9547 54.3573 45.912 54.56ZM59.2633 60.192C58.4739 60.192 57.9406 59.9253 57.6633 59.392C57.0979 59.968 56.3139 60.256 55.3113 60.256C54.4046 60.256 53.6846 60.0373 53.1513 59.6C52.6179 59.152 52.3513 58.56 52.3513 57.824C52.3513 57.376 52.4579 56.9813 52.6713 56.64C52.8953 56.288 53.1939 56.0053 53.5673 55.792C53.8553 55.632 54.1059 55.5253 54.3193 55.472C54.5219 55.4187 54.9326 55.3547 55.5513 55.28C56.3619 55.1947 56.8793 55.0827 57.1033 54.944C57.2846 54.816 57.3753 54.576 57.3753 54.224C57.3753 53.8827 57.2526 53.6107 57.0073 53.408C56.7726 53.2053 56.4366 53.104 55.9993 53.104C55.5833 53.104 55.2046 53.2213 54.8633 53.456V53.44C54.7886 53.5147 54.7513 53.5573 54.7513 53.568H54.7673C54.9913 53.76 55.1033 53.9893 55.1033 54.256C55.1033 54.5227 55.0019 54.7413 54.7993 54.912C54.6073 55.0827 54.3619 55.168 54.0633 55.168C53.7219 55.168 53.4393 55.0613 53.2153 54.848C52.9913 54.624 52.8793 54.3467 52.8793 54.016C52.8793 53.376 53.1939 52.8373 53.8233 52.4C54.4206 51.9627 55.1513 51.744 56.0153 51.744C58.0313 51.744 59.0393 52.6987 59.0393 54.608V57.664C59.0393 57.8773 59.0393 58.0587 59.0393 58.208C59.0499 58.3467 59.0606 58.4427 59.0713 58.496C59.1246 58.7307 59.2099 58.848 59.3273 58.848C59.5086 58.848 59.5993 58.5973 59.5993 58.096V57.344C59.5993 56.8853 59.8393 56.656 60.3193 56.656C60.8313 56.656 61.0873 56.9653 61.0873 57.584V57.664L61.0712 58.528C61.0499 59.6373 60.4473 60.192 59.2633 60.192ZM57.3433 56.368C57.2793 56.3893 57.2153 56.416 57.1513 56.448C57.0979 56.4693 57.0339 56.4907 56.9593 56.512C56.6713 56.608 56.2179 56.6827 55.5993 56.736C54.5966 56.832 54.0953 57.1893 54.0953 57.808C54.0953 58.1173 54.2073 58.368 54.4313 58.56C54.6659 58.7413 54.9859 58.832 55.3913 58.832C55.9993 58.832 56.4686 58.6667 56.7993 58.336C57.1406 58.0053 57.3166 57.552 57.3273 56.976L57.3433 56.368ZM63.6545 52.016C64.0065 52.016 64.2145 52.1547 64.2785 52.432C64.8012 51.9733 65.4252 51.744 66.1505 51.744C66.5452 51.744 66.9025 51.8027 67.2225 51.92C67.5425 52.0267 67.8198 52.1867 68.0545 52.4C68.2892 52.6027 68.4705 52.848 68.5985 53.136C68.7265 53.424 68.7905 53.744 68.7905 54.096C68.7905 54.608 68.6572 55.024 68.3905 55.344C68.1238 55.6533 67.7665 55.808 67.3185 55.808C67.0092 55.808 66.7478 55.7173 66.5345 55.536C66.3318 55.3547 66.2305 55.1307 66.2305 54.864C66.2305 54.6507 66.3158 54.4587 66.4865 54.288C66.6678 54.1173 66.8705 54.032 67.0945 54.032C67.1158 54.032 67.1105 54.0267 67.0785 54.016C67.0572 54.0053 67.0732 54.0107 67.1265 54.032V53.952C67.1265 53.7173 67.0198 53.52 66.8065 53.36C66.6038 53.2 66.3478 53.12 66.0385 53.12C65.3665 53.12 64.9185 53.4293 64.6945 54.048C64.5452 54.4747 64.4705 55.104 64.4705 55.936V56.944C64.4705 57.2533 64.4705 57.4987 64.4705 57.68C64.4705 57.8613 64.4758 57.9733 64.4865 58.016C64.5398 58.4853 64.6092 58.72 64.6945 58.72C64.7585 58.72 64.8172 58.72 64.8705 58.72C64.9238 58.7093 64.9772 58.6987 65.0305 58.688C65.1692 58.6453 65.2918 58.624 65.3985 58.624C65.8892 58.624 66.1345 58.8533 66.1345 59.312C66.1345 59.8133 65.8412 60.064 65.2545 60.064H65.2065C65.1212 60.064 65.0145 60.0587 64.8865 60.048C64.7692 60.0373 64.6305 60.0213 64.4705 60C64.1612 59.968 63.9425 59.952 63.8145 59.952C63.6118 59.952 63.4358 59.9573 63.2865 59.968C63.1372 59.968 63.0038 59.9733 62.8865 59.984L62.0225 60.064C61.4358 60.064 61.1425 59.8133 61.1425 59.312C61.1425 58.864 61.4198 58.64 61.9745 58.64C62.0278 58.64 62.0705 58.64 62.1025 58.64C62.1452 58.6293 62.1932 58.6347 62.2465 58.656L62.4385 58.704H62.5665C62.5772 58.7147 62.5932 58.72 62.6145 58.72H62.6305C62.7265 58.72 62.7798 58.56 62.7905 58.24C62.7905 58.112 62.7958 57.984 62.8065 57.856C62.8172 57.728 62.8225 57.6 62.8225 57.472L62.7745 54.032C62.7532 53.6373 62.6998 53.4133 62.6145 53.36C62.5932 53.36 62.5398 53.3653 62.4545 53.376C62.3692 53.3867 62.3105 53.392 62.2785 53.392H62.3105C62.1825 53.424 62.0492 53.44 61.9105 53.44C61.4092 53.44 61.1585 53.2053 61.1585 52.736C61.1585 52.2453 61.4572 52 62.0545 52C62.0758 52.0107 62.1398 52.0213 62.2465 52.032C62.3532 52.032 62.4492 52.0373 62.5345 52.048C62.6198 52.0587 62.6998 52.0693 62.7745 52.08C62.8598 52.08 62.9238 52.08 62.9665 52.08C62.9878 52.08 63.0145 52.08 63.0465 52.08C63.0892 52.08 63.1372 52.0747 63.1905 52.064C63.2118 52.064 63.2278 52.064 63.2385 52.064C63.2598 52.0533 63.2865 52.048 63.3185 52.048C63.4252 52.0267 63.5372 52.016 63.6545 52.016ZM71.8499 50.128C71.8285 50.3413 71.8072 50.528 71.7859 50.688C71.7752 50.848 71.7645 51.0133 71.7539 51.184C71.7432 51.344 71.7325 51.5253 71.7219 51.728C71.7112 51.92 71.7059 52.16 71.7059 52.448C71.9832 52.1707 72.2712 51.984 72.5699 51.888C72.8685 51.792 73.2419 51.744 73.6899 51.744C74.7885 51.744 75.6579 52.1227 76.2979 52.88C76.9379 53.6373 77.2579 54.624 77.2579 55.84C77.2579 56.48 77.1619 57.072 76.9699 57.616C76.7885 58.16 76.5432 58.6347 76.2339 59.04C75.9032 59.4453 75.5085 59.7493 75.0499 59.952C74.5912 60.1547 74.0739 60.256 73.4979 60.256C72.6765 60.256 72.0205 60.0427 71.5299 59.616C71.4445 59.9573 71.1939 60.128 70.7779 60.128C70.2445 60.128 69.9779 59.8027 69.9779 59.152C69.9779 59.0773 69.9779 59.008 69.9779 58.944C69.9779 58.88 69.9832 58.8267 69.9939 58.784C69.9939 58.6667 69.9939 58.5493 69.9939 58.432C69.9939 58.3147 69.9992 58.1973 70.0099 58.08L70.0579 56.912C70.0579 56.6987 70.0632 56.448 70.0739 56.16C70.0845 55.8613 70.0899 55.6053 70.0899 55.392L70.0579 51.344C70.0472 51.056 70.0259 50.864 69.9939 50.768C69.9725 50.6613 69.9299 50.608 69.8659 50.608C69.8232 50.608 69.7005 50.6293 69.4979 50.672C69.4445 50.6827 69.3912 50.688 69.3379 50.688C69.2845 50.688 69.2312 50.688 69.1779 50.688C68.6659 50.688 68.4099 50.4587 68.4099 50C68.4099 49.52 68.6979 49.28 69.2739 49.28C69.3272 49.28 69.3859 49.28 69.4499 49.28C69.5245 49.28 69.5832 49.2853 69.6259 49.296L69.9299 49.344C69.9512 49.344 69.9779 49.3493 70.0099 49.36C70.0419 49.36 70.0685 49.36 70.0899 49.36C70.1432 49.3707 70.1859 49.376 70.2179 49.376C70.2605 49.376 70.2979 49.376 70.3299 49.376C70.3725 49.376 70.4365 49.3707 70.5219 49.36C70.6072 49.3493 70.6979 49.3333 70.7939 49.312C70.9539 49.28 71.1085 49.264 71.2579 49.264C71.6525 49.264 71.8499 49.4773 71.8499 49.904V50.128ZM71.8339 54.56C71.7592 54.8587 71.7219 55.296 71.7219 55.872C71.7219 56.8107 71.7965 57.472 71.9459 57.856C72.2339 58.5067 72.7512 58.832 73.4979 58.832C74.1272 58.832 74.6179 58.576 74.9699 58.064C75.3325 57.552 75.5139 56.864 75.5139 56C75.5139 55.1147 75.3432 54.4213 75.0019 53.92C74.6605 53.4187 74.1912 53.168 73.5939 53.168C73.3805 53.168 73.1779 53.2053 72.9859 53.28C72.7939 53.344 72.6179 53.44 72.4579 53.568C72.2979 53.6853 72.1645 53.8293 72.0579 54C71.9512 54.1707 71.8765 54.3573 71.8339 54.56ZM85.7931 55.328C85.7931 55.5733 85.7878 55.7653 85.7771 55.904C85.7665 56.0427 85.7345 56.1493 85.6811 56.224C85.6278 56.2987 85.5478 56.3467 85.4411 56.368C85.3451 56.3787 85.2065 56.384 85.0251 56.384H80.2091C80.1665 56.384 80.1451 56.3893 80.1451 56.4C80.1451 57.1147 80.3531 57.696 80.7691 58.144C81.1638 58.6027 81.6598 58.832 82.2571 58.832C82.6518 58.832 83.0091 58.7253 83.3291 58.512C83.6491 58.2987 83.8571 58.0267 83.9531 57.696L84.0971 57.264C84.1611 57.104 84.2518 56.976 84.3691 56.88C84.4971 56.784 84.6518 56.736 84.8331 56.736C85.3878 56.736 85.6651 57.0027 85.6651 57.536C85.6651 58.2613 85.2918 58.9013 84.5451 59.456C83.8305 59.9893 83.0251 60.256 82.1291 60.256C80.9771 60.256 80.0651 59.8773 79.3931 59.12C78.7318 58.3627 78.4011 57.36 78.4011 56.112C78.4011 54.8533 78.7531 53.808 79.4571 52.976C80.1718 52.1547 81.1051 51.744 82.2571 51.744C82.7905 51.744 83.2651 51.8293 83.6811 52C84.0971 52.1707 84.4705 52.4213 84.8011 52.752C85.4625 53.4453 85.7931 54.304 85.7931 55.328ZM84.0491 54.944C84.0491 54.464 83.8731 54.048 83.5211 53.696C83.1478 53.344 82.7318 53.168 82.2731 53.168C81.8038 53.168 81.3451 53.36 80.8971 53.744C80.4918 54.1173 80.2891 54.5173 80.2891 54.944H84.0491ZM88.9983 52.016C89.3503 52.016 89.5583 52.1547 89.6223 52.432C90.1449 51.9733 90.7689 51.744 91.4943 51.744C91.8889 51.744 92.2463 51.8027 92.5663 51.92C92.8863 52.0267 93.1636 52.1867 93.3983 52.4C93.6329 52.6027 93.8143 52.848 93.9423 53.136C94.0703 53.424 94.1343 53.744 94.1343 54.096C94.1343 54.608 94.0009 55.024 93.7343 55.344C93.4676 55.6533 93.1103 55.808 92.6623 55.808C92.3529 55.808 92.0916 55.7173 91.8783 55.536C91.6756 55.3547 91.5743 55.1307 91.5743 54.864C91.5743 54.6507 91.6596 54.4587 91.8303 54.288C92.0116 54.1173 92.2143 54.032 92.4383 54.032C92.4596 54.032 92.4543 54.0267 92.4223 54.016C92.4009 54.0053 92.4169 54.0107 92.4703 54.032V53.952C92.4703 53.7173 92.3636 53.52 92.1503 53.36C91.9476 53.2 91.6916 53.12 91.3823 53.12C90.7103 53.12 90.2623 53.4293 90.0383 54.048C89.8889 54.4747 89.8143 55.104 89.8143 55.936V56.944C89.8143 57.2533 89.8143 57.4987 89.8143 57.68C89.8143 57.8613 89.8196 57.9733 89.8303 58.016C89.8836 58.4853 89.9529 58.72 90.0383 58.72C90.1023 58.72 90.1609 58.72 90.2143 58.72C90.2676 58.7093 90.3209 58.6987 90.3743 58.688C90.5129 58.6453 90.6356 58.624 90.7423 58.624C91.2329 58.624 91.4783 58.8533 91.4783 59.312C91.4783 59.8133 91.1849 60.064 90.5983 60.064H90.5503C90.4649 60.064 90.3583 60.0587 90.2303 60.048C90.1129 60.0373 89.9743 60.0213 89.8143 60C89.5049 59.968 89.2863 59.952 89.1583 59.952C88.9556 59.952 88.7796 59.9573 88.6303 59.968C88.4809 59.968 88.3476 59.9733 88.2303 59.984L87.3663 60.064C86.7796 60.064 86.4863 59.8133 86.4863 59.312C86.4863 58.864 86.7636 58.64 87.3183 58.64C87.3716 58.64 87.4143 58.64 87.4463 58.64C87.4889 58.6293 87.5369 58.6347 87.5903 58.656L87.7823 58.704H87.9103C87.9209 58.7147 87.9369 58.72 87.9583 58.72H87.9743C88.0703 58.72 88.1236 58.56 88.1343 58.24C88.1343 58.112 88.1396 57.984 88.1503 57.856C88.1609 57.728 88.1663 57.6 88.1663 57.472L88.1183 54.032C88.0969 53.6373 88.0436 53.4133 87.9583 53.36C87.9369 53.36 87.8836 53.3653 87.7983 53.376C87.7129 53.3867 87.6543 53.392 87.6223 53.392H87.6543C87.5263 53.424 87.3929 53.44 87.2543 53.44C86.7529 53.44 86.5023 53.2053 86.5023 52.736C86.5023 52.2453 86.8009 52 87.3983 52C87.4196 52.0107 87.4836 52.0213 87.5903 52.032C87.6969 52.032 87.7929 52.0373 87.8783 52.048C87.9636 52.0587 88.0436 52.0693 88.1183 52.08C88.2036 52.08 88.2676 52.08 88.3103 52.08C88.3316 52.08 88.3583 52.08 88.3903 52.08C88.4329 52.08 88.4809 52.0747 88.5343 52.064C88.5556 52.064 88.5716 52.064 88.5823 52.064C88.6036 52.0533 88.6303 52.048 88.6623 52.048C88.7689 52.0267 88.8809 52.016 88.9983 52.016ZM98.1536 51.744C98.7403 51.744 99.2363 51.8613 99.6416 52.096C99.7376 51.7973 99.9723 51.648 100.346 51.648C100.847 51.648 101.098 51.8827 101.098 52.352C101.098 52.3733 101.092 52.3947 101.082 52.416C101.082 52.4373 101.082 52.4747 101.082 52.528C101.082 52.5707 101.076 52.624 101.066 52.688C101.066 52.7413 101.066 52.7947 101.066 52.848C101.044 52.944 101.028 53.04 101.018 53.136C101.007 53.232 101.002 53.3227 101.002 53.408C101.002 53.5467 101.018 53.712 101.05 53.904C101.071 54.0213 101.087 54.128 101.098 54.224C101.108 54.3093 101.114 54.3893 101.114 54.464C101.114 54.9973 100.863 55.264 100.362 55.264C99.871 55.264 99.615 55.0347 99.5936 54.576L99.5776 54.064C99.567 53.8187 99.4176 53.6107 99.1296 53.44C98.8523 53.2587 98.5163 53.168 98.1216 53.168C97.7376 53.168 97.4123 53.264 97.1456 53.456C96.879 53.648 96.7456 53.8933 96.7456 54.192C96.7456 54.448 96.847 54.656 97.0496 54.816C97.2523 54.9653 97.519 55.072 97.8496 55.136C97.999 55.1573 98.143 55.1787 98.2816 55.2C98.431 55.2213 98.5803 55.2427 98.7296 55.264C100.607 55.52 101.546 56.2987 101.546 57.6C101.546 58.3787 101.231 59.0293 100.602 59.552C99.983 60.0213 99.2043 60.256 98.2656 60.256C97.5616 60.256 96.9216 60.096 96.3456 59.776C96.2923 60.1813 96.0363 60.384 95.5776 60.384C95.0336 60.384 94.7616 60.1067 94.7616 59.552C94.783 59.392 94.799 59.264 94.8096 59.168C94.831 59.072 94.847 58.9867 94.8576 58.912C94.8683 58.8373 94.8736 58.7627 94.8736 58.688C94.8843 58.6027 94.8896 58.4853 94.8896 58.336C94.8896 58.2187 94.879 58.096 94.8576 57.968C94.847 57.8293 94.831 57.7013 94.8096 57.584C94.7776 57.4453 94.7616 57.3013 94.7616 57.152C94.7616 56.6613 95.0123 56.416 95.5136 56.416C95.855 56.416 96.063 56.5067 96.1376 56.688C96.2123 56.848 96.255 57.1413 96.2656 57.568C96.2763 57.9413 96.4736 58.2453 96.8576 58.48C97.2523 58.7147 97.7643 58.832 98.3936 58.832C98.8096 58.832 99.151 58.7307 99.4176 58.528C99.695 58.3147 99.8336 58.0427 99.8336 57.712C99.8336 57.1467 99.3643 56.816 98.4256 56.72C97.871 56.656 97.3803 56.576 96.9536 56.48C96.527 56.3733 96.1696 56.2347 95.8816 56.064C95.5936 55.8827 95.375 55.6533 95.2256 55.376C95.0763 55.0987 95.0016 54.752 95.0016 54.336C95.0016 53.952 95.0763 53.6 95.2256 53.28C95.3856 52.96 95.6043 52.688 95.8816 52.464C96.159 52.24 96.4896 52.064 96.8736 51.936C97.2576 51.808 97.6843 51.744 98.1536 51.744ZM105.501 50.032L105.437 52.416C105.757 52.1707 106.071 52 106.381 51.904C106.701 51.7973 107.063 51.744 107.469 51.744C107.949 51.744 108.381 51.8133 108.765 51.952C109.149 52.0907 109.474 52.288 109.741 52.544C110.018 52.8 110.231 53.1093 110.381 53.472C110.53 53.824 110.605 54.2187 110.605 54.656V57.184C110.605 57.4933 110.605 57.7333 110.605 57.904C110.605 58.0747 110.61 58.1707 110.621 58.192C110.653 58.5333 110.701 58.704 110.765 58.704C110.797 58.704 110.834 58.704 110.877 58.704C110.919 58.704 110.973 58.6933 111.037 58.672C111.101 58.6507 111.154 58.64 111.197 58.64C111.239 58.64 111.293 58.64 111.357 58.64C111.901 58.64 112.173 58.8747 112.173 59.344C112.173 59.824 111.842 60.064 111.181 60.064C111.042 60.064 110.845 60.048 110.589 60.016C110.375 59.9947 110.183 59.9787 110.013 59.968C109.842 59.9467 109.698 59.936 109.581 59.936C109.474 59.936 109.367 59.9413 109.261 59.952C109.165 59.952 109.079 59.9573 109.005 59.968C108.599 60.032 108.327 60.064 108.189 60.064C107.933 60.064 107.719 59.9893 107.549 59.84C107.378 59.6907 107.293 59.504 107.293 59.28C107.293 59.0987 107.367 58.944 107.517 58.816C107.677 58.6773 107.863 58.608 108.077 58.608C108.205 58.608 108.365 58.64 108.557 58.704C108.578 58.704 108.605 58.7093 108.637 58.72C108.669 58.72 108.701 58.72 108.733 58.72C108.85 58.72 108.919 58.464 108.941 57.952C108.941 57.8987 108.941 57.808 108.941 57.68C108.941 57.552 108.946 57.4027 108.957 57.232C108.957 57.1467 108.957 57.04 108.957 56.912C108.967 56.784 108.973 56.6773 108.973 56.592V55.776C108.973 54.7947 108.882 54.1387 108.701 53.808C108.466 53.3493 108.029 53.12 107.389 53.12C106.685 53.12 106.173 53.36 105.853 53.84C105.639 54.1707 105.522 54.736 105.501 55.536C105.501 55.7173 105.495 55.8987 105.485 56.08C105.485 56.2613 105.485 56.4427 105.485 56.624C105.485 56.656 105.485 56.7093 105.485 56.784C105.485 56.848 105.479 56.9067 105.469 56.96V57.216C105.469 57.4933 105.469 57.7173 105.469 57.888C105.469 58.048 105.474 58.1493 105.485 58.192C105.517 58.5547 105.581 58.736 105.677 58.736C105.698 58.736 105.735 58.7307 105.789 58.72C105.842 58.7093 105.906 58.6987 105.981 58.688C106.034 58.6667 106.093 58.656 106.157 58.656C106.231 58.6453 106.29 58.64 106.333 58.64C106.834 58.64 107.085 58.864 107.085 59.312C107.085 59.8133 106.775 60.064 106.157 60.064C105.997 60.064 105.773 60.048 105.485 60.016C105.303 59.9947 105.133 59.9787 104.973 59.968C104.813 59.9573 104.669 59.952 104.541 59.952C104.381 59.952 104.151 59.968 103.853 60C103.639 60.0213 103.463 60.0373 103.325 60.048C103.197 60.0587 103.106 60.064 103.053 60.064C102.466 60.064 102.173 59.808 102.173 59.296C102.173 58.8587 102.45 58.64 103.005 58.64C103.154 58.64 103.271 58.6507 103.357 58.672H103.341C103.426 58.6933 103.495 58.704 103.549 58.704C103.602 58.704 103.639 58.704 103.661 58.704C103.682 58.704 103.698 58.6133 103.709 58.432C103.762 58.1547 103.799 57.536 103.821 56.576C103.821 56.128 103.821 55.6747 103.821 55.216C103.831 54.7573 103.837 54.304 103.837 53.856C103.837 52.3733 103.805 51.4293 103.741 51.024C103.709 50.768 103.661 50.6293 103.597 50.608C103.586 50.6187 103.549 50.6293 103.485 50.64C103.431 50.64 103.383 50.6453 103.341 50.656C103.277 50.6773 103.207 50.688 103.133 50.688C103.058 50.688 102.989 50.688 102.925 50.688C102.413 50.688 102.157 50.4587 102.157 50C102.157 49.7867 102.242 49.6107 102.413 49.472C102.583 49.3333 102.791 49.264 103.037 49.264C103.111 49.264 103.293 49.28 103.581 49.312H103.565C103.661 49.3227 103.757 49.3333 103.853 49.344C103.949 49.344 104.055 49.344 104.173 49.344C104.194 49.344 104.242 49.344 104.317 49.344C104.402 49.3333 104.482 49.3227 104.557 49.312C104.61 49.3013 104.663 49.296 104.717 49.296C104.781 49.2853 104.839 49.28 104.893 49.28C105.298 49.28 105.501 49.52 105.501 50V50.032ZM116.52 60.256C115.379 60.256 114.467 59.8667 113.784 59.088C113.101 58.3093 112.76 57.28 112.76 56C112.76 54.7093 113.101 53.6853 113.784 52.928C114.467 52.1387 115.395 51.744 116.568 51.744C117.741 51.744 118.675 52.128 119.368 52.896C120.04 53.6533 120.376 54.672 120.376 55.952C120.376 57.2533 120.029 58.288 119.336 59.056C118.643 59.856 117.704 60.256 116.52 60.256ZM116.6 53.168C115.96 53.168 115.459 53.3973 115.096 53.856C114.744 54.3147 114.552 54.9707 114.52 55.824V56C114.52 56.8853 114.696 57.5787 115.048 58.08C115.4 58.5813 115.896 58.832 116.536 58.832C117.187 58.832 117.699 58.5867 118.072 58.096C118.456 57.5947 118.648 56.8907 118.648 55.984C118.648 54.1067 117.965 53.168 116.6 53.168ZM123.703 52.016C124.065 52.016 124.273 52.176 124.327 52.496C124.892 51.9947 125.58 51.744 126.391 51.744C126.935 51.744 127.425 51.84 127.863 52.032C128.3 52.224 128.673 52.496 128.983 52.848C129.303 53.2 129.543 53.632 129.703 54.144C129.873 54.6453 129.959 55.2107 129.959 55.84C129.959 56.48 129.863 57.072 129.671 57.616C129.489 58.16 129.244 58.6347 128.935 59.04C128.604 59.4453 128.209 59.7493 127.751 59.952C127.292 60.1547 126.78 60.256 126.215 60.256C125.479 60.256 124.855 60.064 124.343 59.68V60.384C124.343 60.5653 124.343 60.7147 124.343 60.832C124.343 60.9493 124.348 61.0347 124.359 61.088V61.072C124.401 61.2747 124.465 61.376 124.551 61.376C124.593 61.376 124.668 61.3653 124.775 61.344C124.849 61.3333 124.94 61.3227 125.047 61.312C125.164 61.3013 125.217 61.296 125.207 61.296C125.687 61.296 125.927 61.5307 125.927 62C125.927 62.48 125.628 62.72 125.031 62.72C124.945 62.72 124.839 62.7147 124.711 62.704C124.593 62.6933 124.46 62.6773 124.311 62.656H124.327C124.081 62.624 123.756 62.608 123.351 62.608C123.244 62.608 123.143 62.608 123.047 62.608C122.951 62.6187 122.86 62.6293 122.775 62.64C122.753 62.64 122.732 62.64 122.711 62.64C122.7 62.6507 122.684 62.656 122.663 62.656C122.503 62.6773 122.359 62.6933 122.231 62.704C122.103 62.7147 122.007 62.72 121.943 62.72C121.697 62.72 121.489 62.6453 121.319 62.496C121.148 62.3573 121.062 62.1813 121.062 61.968C121.062 61.5093 121.319 61.28 121.831 61.28C121.884 61.28 121.937 61.28 121.991 61.28C122.055 61.2907 122.119 61.3013 122.183 61.312C122.321 61.3547 122.428 61.376 122.503 61.376C122.545 61.376 122.577 61.3333 122.599 61.248C122.62 61.1307 122.636 60.9387 122.647 60.672C122.657 60.416 122.668 60.0747 122.679 59.648C122.679 58.6773 122.679 57.7067 122.679 56.736C122.689 55.7547 122.695 54.7787 122.695 53.808C122.684 53.4773 122.641 53.312 122.567 53.312C122.513 53.312 122.433 53.328 122.327 53.36C122.252 53.3813 122.183 53.3973 122.118 53.408C122.055 53.4187 121.98 53.424 121.895 53.424C121.351 53.424 121.079 53.184 121.079 52.704C121.079 52.2453 121.388 52.016 122.007 52.016C122.06 52.016 122.124 52.016 122.199 52.016C122.273 52.016 122.337 52.0213 122.391 52.032C122.433 52.032 122.471 52.0373 122.503 52.048C122.545 52.048 122.583 52.048 122.615 52.048C122.689 52.0587 122.748 52.064 122.791 52.064C122.844 52.064 122.887 52.064 122.919 52.064C122.951 52.064 123.004 52.064 123.079 52.064C123.153 52.0533 123.228 52.0427 123.303 52.032C123.388 52.0213 123.463 52.016 123.527 52.016C123.591 52.016 123.649 52.016 123.703 52.016ZM124.567 54.544C124.513 54.7573 124.476 54.9813 124.455 55.216C124.433 55.44 124.417 55.68 124.407 55.936C124.407 55.968 124.407 56.0107 124.407 56.064C124.407 56.1067 124.401 56.1493 124.391 56.192V56.384C124.391 56.7147 124.401 56.9973 124.423 57.232C124.455 57.4667 124.497 57.6587 124.551 57.808C124.593 57.9467 124.663 58.0747 124.759 58.192C124.865 58.3093 124.983 58.416 125.111 58.512C125.26 58.608 125.425 58.688 125.607 58.752C125.788 58.8053 125.98 58.832 126.183 58.832C126.833 58.832 127.335 58.5867 127.687 58.096C128.039 57.6053 128.215 56.9013 128.215 55.984C128.215 54.1067 127.585 53.168 126.327 53.168C125.911 53.168 125.532 53.296 125.191 53.552C124.86 53.808 124.652 54.1387 124.567 54.544Z" fill="white"/>
</svg>
