<svg width="173" height="62" viewBox="0 0 173 62" fill="none" xmlns="http://www.w3.org/2000/svg">
<path d="M10.36 15.64L12.84 28.48L16.16 11.92C16.56 9.89333 17.64 8.88 19.4 8.88C21.1867 8.88 22.2667 9.8 22.64 11.64V11.6C22.96 13.3067 23.24 14.84 23.48 16.2C23.7467 17.56 24 18.8933 24.24 20.2C24.5067 21.48 24.76 22.8 25 24.16C25.2667 25.52 25.56 27.0533 25.88 28.76L28.44 16.24C28.68 15.12 28.8 14.2933 28.8 13.76C28.8 13.0667 28.48 12.72 27.84 12.72C27.7067 12.72 27.56 12.7333 27.4 12.76C27.2667 12.76 27.1067 12.76 26.92 12.76C26.7333 12.7867 26.5333 12.8 26.32 12.8C26.1333 12.8 25.9733 12.8 25.84 12.8C24.2933 12.8 23.52 12.1867 23.52 10.96C23.52 9.76 24.28 9.16 25.8 9.16C26.04 9.16 26.2667 9.17333 26.48 9.2C26.6933 9.2 26.9067 9.21333 27.12 9.24C28.1867 9.37333 29.0533 9.48 29.72 9.56C30.4133 9.61333 30.9067 9.64 31.2 9.64C31.6267 9.64 32.3467 9.56 33.36 9.4C34.4 9.24 35.2 9.16 35.76 9.16C37.1467 9.16 37.84 9.78667 37.84 11.04C37.84 12.2133 37.16 12.8 35.8 12.8C35.72 12.8 35.6 12.8 35.44 12.8C35.3067 12.8 35.1733 12.7867 35.04 12.76C34.9067 12.7333 34.7867 12.72 34.68 12.72C34.5733 12.6933 34.4933 12.68 34.44 12.68C34.1467 12.68 33.92 12.8133 33.76 13.08C33.7067 13.24 33.6133 13.5333 33.48 13.96C33.3733 14.3867 33.2267 14.9467 33.04 15.64L28.76 33.96C28.3067 35.64 27.2933 36.48 25.72 36.48C24.04 36.48 22.9867 35.48 22.56 33.48L19.32 16.48L15.72 34C15.5333 34.7733 15.2 35.3867 14.72 35.84C14.2667 36.2667 13.6533 36.48 12.88 36.48C11.3333 36.48 10.3467 35.64 9.92 33.96L5.36 14.84C5.17333 14.12 4.94667 13.6 4.68 13.28C4.41333 12.9333 4.02667 12.76 3.52 12.76H3.24L2.4 12.84C1.14667 12.84 0.52 12.24 0.52 11.04C0.52 9.78667 1.18667 9.16 2.52 9.16C2.94667 9.16 3.4 9.2 3.88 9.28C5.24 9.52 6.54667 9.64 7.8 9.64C8.09333 9.64 8.57333 9.61333 9.24 9.56C9.93333 9.48 10.8267 9.37333 11.92 9.24C12.1333 9.21333 12.3333 9.2 12.52 9.2C12.7067 9.17333 12.9067 9.16 13.12 9.16C14.48 9.16 15.16 9.76 15.16 10.96C15.16 12.24 14.3733 12.88 12.8 12.88C12.6667 12.88 12.4933 12.88 12.28 12.88C12.0933 12.8533 11.8933 12.8267 11.68 12.8C11.4667 12.7733 11.2667 12.76 11.08 12.76C10.8933 12.7333 10.7733 12.72 10.72 12.72C10.24 12.72 10 12.9733 10 13.48C10 13.72 10.04 14.04 10.12 14.44L10.36 15.64ZM49.8538 36.84C46.2538 36.84 43.3871 35.5467 41.2538 32.96C39.2004 30.3733 38.1738 26.9333 38.1738 22.64C38.1738 18.32 39.2138 14.88 41.2938 12.32C43.4004 9.76 46.3204 8.48 50.0538 8.48C53.6538 8.48 56.4804 9.72 58.5338 12.2C60.6404 14.68 61.6938 17.9867 61.6938 22.12C61.6938 26.6 60.6271 30.16 58.4938 32.8C56.4671 35.4933 53.5871 36.84 49.8538 36.84ZM49.9338 12.32C47.6671 12.32 45.9204 13.2133 44.6938 15C43.4671 16.7867 42.8538 19.32 42.8538 22.6C42.8538 25.9333 43.4671 28.5067 44.6938 30.32C45.9204 32.1067 47.6538 33 49.8938 33C52.0271 33 53.7338 32.0933 55.0138 30.28C56.3471 28.44 57.0138 25.84 57.0138 22.48C57.0138 19.2 56.4004 16.6933 55.1738 14.96C53.9738 13.2 52.2271 12.32 49.9338 12.32ZM76.0647 36.84C72.4647 36.84 69.598 35.5467 67.4647 32.96C65.4114 30.3733 64.3847 26.9333 64.3847 22.64C64.3847 18.32 65.4247 14.88 67.5047 12.32C69.6114 9.76 72.5314 8.48 76.2647 8.48C79.8647 8.48 82.6914 9.72 84.7447 12.2C86.8514 14.68 87.9047 17.9867 87.9047 22.12C87.9047 26.6 86.838 30.16 84.7047 32.8C82.678 35.4933 79.798 36.84 76.0647 36.84ZM76.1447 12.32C73.878 12.32 72.1314 13.2133 70.9047 15C69.678 16.7867 69.0647 19.32 69.0647 22.6C69.0647 25.9333 69.678 28.5067 70.9047 30.32C72.1314 32.1067 73.8647 33 76.1047 33C78.238 33 79.9447 32.0933 81.2247 30.28C82.558 28.44 83.2247 25.84 83.2247 22.48C83.2247 19.2 82.6114 16.6933 81.3847 14.96C80.1847 13.2 78.438 12.32 76.1447 12.32ZM96.9956 35.84H95.8756C95.4223 35.84 94.7156 35.8933 93.7556 36C92.7956 36.1067 92.1156 36.16 91.7156 36.16H91.5956C91.0356 36.16 90.7556 36 90.7556 35.68C90.7556 35.28 91.0356 35.08 91.5956 35.08C91.6756 35.08 92.009 35.1067 92.5956 35.16C93.1823 35.2133 93.5956 35.24 93.8356 35.24C94.6623 35.24 95.209 34.9733 95.4756 34.44C95.6623 34.0933 95.769 33.4533 95.7956 32.52L95.8756 29.52L95.7956 12.8C95.769 11.8667 95.6623 11.2267 95.4756 10.88C95.209 10.3467 94.6623 10.08 93.8356 10.08C93.5956 10.08 93.2223 10.1067 92.7156 10.16C92.2356 10.1867 91.8756 10.2 91.6356 10.2C91.049 10.2 90.7556 10.0267 90.7556 9.68C90.7556 9.33333 91.0356 9.16 91.5956 9.16H91.7156L92.6356 9.24C94.4756 9.4 95.5556 9.48 95.8756 9.48H96.9956C97.289 9.48 98.4356 9.41333 100.436 9.28C101.636 9.2 102.716 9.16 103.676 9.16C106.102 9.16 108.049 9.42667 109.516 9.96C111.009 10.4667 112.276 11.3067 113.316 12.48C115.582 15.0667 116.716 18.4933 116.716 22.76C116.716 26.04 115.996 28.8533 114.556 31.2C113.116 33.52 111.209 34.9867 108.836 35.6C107.396 35.9733 105.636 36.16 103.556 36.16C102.809 36.16 101.702 36.1067 100.236 36C98.7956 35.8933 97.7156 35.84 96.9956 35.84ZM103.236 10.08C102.249 10.08 101.516 10.1067 101.036 10.16L98.9156 10.4C98.249 10.48 97.7956 10.6 97.5556 10.76C97.3423 10.92 97.209 11.2133 97.1556 11.64C97.049 12.6267 96.9956 13.8133 96.9956 15.2V32.84C96.9956 33.9333 97.329 34.6133 97.9956 34.88C98.689 35.1467 100.462 35.28 103.316 35.28C105.662 35.28 107.476 35.08 108.756 34.68C110.622 34.0933 112.142 32.9467 113.316 31.24C114.756 29.16 115.476 26.4267 115.476 23.04C115.476 19.76 114.902 17.0667 113.756 14.96C112.636 12.8533 111.022 11.48 108.916 10.84C107.289 10.3333 105.396 10.08 103.236 10.08ZM131.937 8.56C135.404 8.56 138.217 9.86667 140.377 12.48C142.537 15.0667 143.617 18.4667 143.617 22.68C143.617 26.8667 142.577 30.2667 140.497 32.88C138.417 35.4667 135.697 36.76 132.337 36.76C128.791 36.76 125.937 35.48 123.777 32.92C121.644 30.3333 120.577 26.9333 120.577 22.72C120.577 18.5333 121.631 15.1333 123.737 12.52C125.844 9.88 128.577 8.56 131.937 8.56ZM132.097 35.88C135.191 35.88 137.671 34.68 139.537 32.28C141.431 29.8533 142.377 26.6667 142.377 22.72C142.377 18.8267 141.391 15.6533 139.417 13.2C137.471 10.72 134.951 9.48 131.857 9.48C128.871 9.48 126.444 10.7067 124.577 13.16C122.711 15.5867 121.777 18.7333 121.777 22.6C121.777 26.6267 122.711 29.8533 124.577 32.28C126.471 34.68 128.977 35.88 132.097 35.88ZM158.851 8.56C162.318 8.56 165.131 9.86667 167.291 12.48C169.451 15.0667 170.531 18.4667 170.531 22.68C170.531 26.8667 169.491 30.2667 167.411 32.88C165.331 35.4667 162.611 36.76 159.251 36.76C155.705 36.76 152.851 35.48 150.691 32.92C148.558 30.3333 147.491 26.9333 147.491 22.72C147.491 18.5333 148.545 15.1333 150.651 12.52C152.758 9.88 155.491 8.56 158.851 8.56ZM159.011 35.88C162.105 35.88 164.585 34.68 166.451 32.28C168.345 29.8533 169.291 26.6667 169.291 22.72C169.291 18.8267 168.305 15.6533 166.331 13.2C164.385 10.72 161.865 9.48 158.771 9.48C155.785 9.48 153.358 10.7067 151.491 13.16C149.625 15.5867 148.691 18.7333 148.691 22.6C148.691 26.6267 149.625 29.8533 151.491 32.28C153.385 34.68 155.891 35.88 159.011 35.88Z" fill="black"/>
<path d="M19.928 48.128C19.9067 48.3413 19.8853 48.528 19.864 48.688C19.8533 48.848 19.8427 49.0133 19.832 49.184C19.8213 49.344 19.8107 49.5253 19.8 49.728C19.7893 49.92 19.784 50.16 19.784 50.448C20.0613 50.1707 20.3493 49.984 20.648 49.888C20.9467 49.792 21.32 49.744 21.768 49.744C22.8667 49.744 23.736 50.1227 24.376 50.88C25.016 51.6373 25.336 52.624 25.336 53.84C25.336 54.48 25.24 55.072 25.048 55.616C24.8667 56.16 24.6213 56.6347 24.312 57.04C23.9813 57.4453 23.5867 57.7493 23.128 57.952C22.6693 58.1547 22.152 58.256 21.576 58.256C20.7547 58.256 20.0987 58.0427 19.608 57.616C19.5227 57.9573 19.272 58.128 18.856 58.128C18.3227 58.128 18.056 57.8027 18.056 57.152C18.056 57.0773 18.056 57.008 18.056 56.944C18.056 56.88 18.0613 56.8267 18.072 56.784C18.072 56.6667 18.072 56.5493 18.072 56.432C18.072 56.3147 18.0773 56.1973 18.088 56.08L18.136 54.912C18.136 54.6987 18.1413 54.448 18.152 54.16C18.1627 53.8613 18.168 53.6053 18.168 53.392L18.136 49.344C18.1253 49.056 18.104 48.864 18.072 48.768C18.0507 48.6613 18.008 48.608 17.944 48.608C17.9013 48.608 17.7787 48.6293 17.576 48.672C17.5227 48.6827 17.4693 48.688 17.416 48.688C17.3627 48.688 17.3093 48.688 17.256 48.688C16.744 48.688 16.488 48.4587 16.488 48C16.488 47.52 16.776 47.28 17.352 47.28C17.4053 47.28 17.464 47.28 17.528 47.28C17.6027 47.28 17.6613 47.2853 17.704 47.296L18.008 47.344C18.0293 47.344 18.056 47.3493 18.088 47.36C18.12 47.36 18.1467 47.36 18.168 47.36C18.2213 47.3707 18.264 47.376 18.296 47.376C18.3387 47.376 18.376 47.376 18.408 47.376C18.4507 47.376 18.5147 47.3707 18.6 47.36C18.6853 47.3493 18.776 47.3333 18.872 47.312C19.032 47.28 19.1867 47.264 19.336 47.264C19.7307 47.264 19.928 47.4773 19.928 47.904V48.128ZM19.912 52.56C19.8373 52.8587 19.8 53.296 19.8 53.872C19.8 54.8107 19.8747 55.472 20.024 55.856C20.312 56.5067 20.8293 56.832 21.576 56.832C22.2053 56.832 22.696 56.576 23.048 56.064C23.4107 55.552 23.592 54.864 23.592 54C23.592 53.1147 23.4213 52.4213 23.08 51.92C22.7387 51.4187 22.2693 51.168 21.672 51.168C21.4587 51.168 21.256 51.2053 21.064 51.28C20.872 51.344 20.696 51.44 20.536 51.568C20.376 51.6853 20.2427 51.8293 20.136 52C20.0293 52.1707 19.9547 52.3573 19.912 52.56ZM38.0633 58.192C37.2739 58.192 36.7406 57.9253 36.4633 57.392C35.8979 57.968 35.1139 58.256 34.1113 58.256C33.2046 58.256 32.4846 58.0373 31.9513 57.6C31.4179 57.152 31.1513 56.56 31.1513 55.824C31.1513 55.376 31.2579 54.9813 31.4713 54.64C31.6953 54.288 31.9939 54.0053 32.3673 53.792C32.6553 53.632 32.9059 53.5253 33.1193 53.472C33.3219 53.4187 33.7326 53.3547 34.3513 53.28C35.1619 53.1947 35.6793 53.0827 35.9033 52.944C36.0846 52.816 36.1753 52.576 36.1753 52.224C36.1753 51.8827 36.0526 51.6107 35.8073 51.408C35.5726 51.2053 35.2366 51.104 34.7993 51.104C34.3833 51.104 34.0046 51.2213 33.6633 51.456V51.44C33.5886 51.5147 33.5513 51.5573 33.5513 51.568H33.5673C33.7913 51.76 33.9033 51.9893 33.9033 52.256C33.9033 52.5227 33.8019 52.7413 33.5993 52.912C33.4073 53.0827 33.1619 53.168 32.8633 53.168C32.5219 53.168 32.2393 53.0613 32.0153 52.848C31.7913 52.624 31.6793 52.3467 31.6793 52.016C31.6793 51.376 31.9939 50.8373 32.6233 50.4C33.2206 49.9627 33.9513 49.744 34.8153 49.744C36.8313 49.744 37.8393 50.6987 37.8393 52.608V55.664C37.8393 55.8773 37.8393 56.0587 37.8393 56.208C37.8499 56.3467 37.8606 56.4427 37.8713 56.496C37.9246 56.7307 38.0099 56.848 38.1273 56.848C38.3086 56.848 38.3993 56.5973 38.3993 56.096V55.344C38.3993 54.8853 38.6393 54.656 39.1193 54.656C39.6313 54.656 39.8873 54.9653 39.8873 55.584V55.664L39.8713 56.528C39.8499 57.6373 39.2473 58.192 38.0633 58.192ZM36.1433 54.368C36.0793 54.3893 36.0153 54.416 35.9513 54.448C35.8979 54.4693 35.8339 54.4907 35.7593 54.512C35.4713 54.608 35.0179 54.6827 34.3993 54.736C33.3966 54.832 32.8953 55.1893 32.8953 55.808C32.8953 56.1173 33.0073 56.368 33.2313 56.56C33.4659 56.7413 33.7859 56.832 34.1913 56.832C34.7993 56.832 35.2686 56.6667 35.5993 56.336C35.9406 56.0053 36.1166 55.552 36.1273 54.976L36.1433 54.368ZM47.2545 50.016C47.6065 50.016 47.8145 50.1547 47.8785 50.432C48.4012 49.9733 49.0252 49.744 49.7505 49.744C50.1452 49.744 50.5025 49.8027 50.8225 49.92C51.1425 50.0267 51.4198 50.1867 51.6545 50.4C51.8892 50.6027 52.0705 50.848 52.1985 51.136C52.3265 51.424 52.3905 51.744 52.3905 52.096C52.3905 52.608 52.2572 53.024 51.9905 53.344C51.7238 53.6533 51.3665 53.808 50.9185 53.808C50.6092 53.808 50.3478 53.7173 50.1345 53.536C49.9318 53.3547 49.8305 53.1307 49.8305 52.864C49.8305 52.6507 49.9158 52.4587 50.0865 52.288C50.2678 52.1173 50.4705 52.032 50.6945 52.032C50.7158 52.032 50.7105 52.0267 50.6785 52.016C50.6572 52.0053 50.6732 52.0107 50.7265 52.032V51.952C50.7265 51.7173 50.6198 51.52 50.4065 51.36C50.2038 51.2 49.9478 51.12 49.6385 51.12C48.9665 51.12 48.5185 51.4293 48.2945 52.048C48.1452 52.4747 48.0705 53.104 48.0705 53.936V54.944C48.0705 55.2533 48.0705 55.4987 48.0705 55.68C48.0705 55.8613 48.0758 55.9733 48.0865 56.016C48.1398 56.4853 48.2092 56.72 48.2945 56.72C48.3585 56.72 48.4172 56.72 48.4705 56.72C48.5238 56.7093 48.5772 56.6987 48.6305 56.688C48.7692 56.6453 48.8918 56.624 48.9985 56.624C49.4892 56.624 49.7345 56.8533 49.7345 57.312C49.7345 57.8133 49.4412 58.064 48.8545 58.064H48.8065C48.7212 58.064 48.6145 58.0587 48.4865 58.048C48.3692 58.0373 48.2305 58.0213 48.0705 58C47.7612 57.968 47.5425 57.952 47.4145 57.952C47.2118 57.952 47.0358 57.9573 46.8865 57.968C46.7372 57.968 46.6038 57.9733 46.4865 57.984L45.6225 58.064C45.0358 58.064 44.7425 57.8133 44.7425 57.312C44.7425 56.864 45.0198 56.64 45.5745 56.64C45.6278 56.64 45.6705 56.64 45.7025 56.64C45.7452 56.6293 45.7932 56.6347 45.8465 56.656L46.0385 56.704H46.1665C46.1772 56.7147 46.1932 56.72 46.2145 56.72H46.2305C46.3265 56.72 46.3798 56.56 46.3905 56.24C46.3905 56.112 46.3958 55.984 46.4065 55.856C46.4172 55.728 46.4225 55.6 46.4225 55.472L46.3745 52.032C46.3532 51.6373 46.2998 51.4133 46.2145 51.36C46.1932 51.36 46.1398 51.3653 46.0545 51.376C45.9692 51.3867 45.9105 51.392 45.8785 51.392H45.9105C45.7825 51.424 45.6492 51.44 45.5105 51.44C45.0092 51.44 44.7585 51.2053 44.7585 50.736C44.7585 50.2453 45.0572 50 45.6545 50C45.6758 50.0107 45.7398 50.0213 45.8465 50.032C45.9532 50.032 46.0492 50.0373 46.1345 50.048C46.2198 50.0587 46.2998 50.0693 46.3745 50.08C46.4598 50.08 46.5238 50.08 46.5665 50.08C46.5878 50.08 46.6145 50.08 46.6465 50.08C46.6892 50.08 46.7372 50.0747 46.7905 50.064C46.8118 50.064 46.8278 50.064 46.8385 50.064C46.8598 50.0533 46.8865 50.048 46.9185 50.048C47.0252 50.0267 47.1372 50.016 47.2545 50.016ZM60.2499 48.128C60.2285 48.3413 60.2072 48.528 60.1859 48.688C60.1752 48.848 60.1645 49.0133 60.1539 49.184C60.1432 49.344 60.1325 49.5253 60.1219 49.728C60.1112 49.92 60.1059 50.16 60.1059 50.448C60.3832 50.1707 60.6712 49.984 60.9699 49.888C61.2685 49.792 61.6419 49.744 62.0899 49.744C63.1885 49.744 64.0579 50.1227 64.6979 50.88C65.3379 51.6373 65.6579 52.624 65.6579 53.84C65.6579 54.48 65.5619 55.072 65.3699 55.616C65.1885 56.16 64.9432 56.6347 64.6339 57.04C64.3032 57.4453 63.9085 57.7493 63.4499 57.952C62.9912 58.1547 62.4739 58.256 61.8979 58.256C61.0765 58.256 60.4205 58.0427 59.9299 57.616C59.8445 57.9573 59.5939 58.128 59.1779 58.128C58.6445 58.128 58.3779 57.8027 58.3779 57.152C58.3779 57.0773 58.3779 57.008 58.3779 56.944C58.3779 56.88 58.3832 56.8267 58.3939 56.784C58.3939 56.6667 58.3939 56.5493 58.3939 56.432C58.3939 56.3147 58.3992 56.1973 58.4099 56.08L58.4579 54.912C58.4579 54.6987 58.4632 54.448 58.4739 54.16C58.4845 53.8613 58.4899 53.6053 58.4899 53.392L58.4579 49.344C58.4472 49.056 58.4259 48.864 58.3939 48.768C58.3725 48.6613 58.3299 48.608 58.2659 48.608C58.2232 48.608 58.1005 48.6293 57.8979 48.672C57.8445 48.6827 57.7912 48.688 57.7379 48.688C57.6845 48.688 57.6312 48.688 57.5779 48.688C57.0659 48.688 56.8099 48.4587 56.8099 48C56.8099 47.52 57.0979 47.28 57.6739 47.28C57.7272 47.28 57.7859 47.28 57.8499 47.28C57.9245 47.28 57.9832 47.2853 58.0259 47.296L58.3299 47.344C58.3512 47.344 58.3779 47.3493 58.4099 47.36C58.4419 47.36 58.4685 47.36 58.4899 47.36C58.5432 47.3707 58.5859 47.376 58.6179 47.376C58.6605 47.376 58.6979 47.376 58.7299 47.376C58.7725 47.376 58.8365 47.3707 58.9219 47.36C59.0072 47.3493 59.0979 47.3333 59.1939 47.312C59.3539 47.28 59.5085 47.264 59.6579 47.264C60.0525 47.264 60.2499 47.4773 60.2499 47.904V48.128ZM60.2339 52.56C60.1592 52.8587 60.1219 53.296 60.1219 53.872C60.1219 54.8107 60.1965 55.472 60.3459 55.856C60.6339 56.5067 61.1512 56.832 61.8979 56.832C62.5272 56.832 63.0179 56.576 63.3699 56.064C63.7325 55.552 63.9139 54.864 63.9139 54C63.9139 53.1147 63.7432 52.4213 63.4019 51.92C63.0605 51.4187 62.5912 51.168 61.9939 51.168C61.7805 51.168 61.5779 51.2053 61.3859 51.28C61.1939 51.344 61.0179 51.44 60.8579 51.568C60.6979 51.6853 60.5645 51.8293 60.4579 52C60.3512 52.1707 60.2765 52.3573 60.2339 52.56ZM78.9931 53.328C78.9931 53.5733 78.9878 53.7653 78.9771 53.904C78.9665 54.0427 78.9345 54.1493 78.8811 54.224C78.8278 54.2987 78.7478 54.3467 78.6411 54.368C78.5451 54.3787 78.4065 54.384 78.2251 54.384H73.4091C73.3665 54.384 73.3451 54.3893 73.3451 54.4C73.3451 55.1147 73.5531 55.696 73.9691 56.144C74.3638 56.6027 74.8598 56.832 75.4571 56.832C75.8518 56.832 76.2091 56.7253 76.5291 56.512C76.8491 56.2987 77.0571 56.0267 77.1531 55.696L77.2971 55.264C77.3611 55.104 77.4518 54.976 77.5691 54.88C77.6971 54.784 77.8518 54.736 78.0331 54.736C78.5878 54.736 78.8651 55.0027 78.8651 55.536C78.8651 56.2613 78.4918 56.9013 77.7451 57.456C77.0305 57.9893 76.2251 58.256 75.3291 58.256C74.1771 58.256 73.2651 57.8773 72.5931 57.12C71.9318 56.3627 71.6011 55.36 71.6011 54.112C71.6011 52.8533 71.9531 51.808 72.6571 50.976C73.3718 50.1547 74.3051 49.744 75.4571 49.744C75.9905 49.744 76.4651 49.8293 76.8811 50C77.2971 50.1707 77.6705 50.4213 78.0011 50.752C78.6625 51.4453 78.9931 52.304 78.9931 53.328ZM77.2491 52.944C77.2491 52.464 77.0731 52.048 76.7211 51.696C76.3478 51.344 75.9318 51.168 75.4731 51.168C75.0038 51.168 74.5451 51.36 74.0971 51.744C73.6918 52.1173 73.4891 52.5173 73.4891 52.944H77.2491ZM86.9983 50.016C87.3503 50.016 87.5583 50.1547 87.6223 50.432C88.1449 49.9733 88.7689 49.744 89.4943 49.744C89.8889 49.744 90.2463 49.8027 90.5663 49.92C90.8863 50.0267 91.1636 50.1867 91.3983 50.4C91.6329 50.6027 91.8143 50.848 91.9423 51.136C92.0703 51.424 92.1343 51.744 92.1343 52.096C92.1343 52.608 92.0009 53.024 91.7343 53.344C91.4676 53.6533 91.1103 53.808 90.6623 53.808C90.3529 53.808 90.0916 53.7173 89.8783 53.536C89.6756 53.3547 89.5743 53.1307 89.5743 52.864C89.5743 52.6507 89.6596 52.4587 89.8303 52.288C90.0116 52.1173 90.2143 52.032 90.4383 52.032C90.4596 52.032 90.4543 52.0267 90.4223 52.016C90.4009 52.0053 90.4169 52.0107 90.4703 52.032V51.952C90.4703 51.7173 90.3636 51.52 90.1503 51.36C89.9476 51.2 89.6916 51.12 89.3823 51.12C88.7103 51.12 88.2623 51.4293 88.0383 52.048C87.8889 52.4747 87.8143 53.104 87.8143 53.936V54.944C87.8143 55.2533 87.8143 55.4987 87.8143 55.68C87.8143 55.8613 87.8196 55.9733 87.8303 56.016C87.8836 56.4853 87.9529 56.72 88.0383 56.72C88.1023 56.72 88.1609 56.72 88.2143 56.72C88.2676 56.7093 88.3209 56.6987 88.3743 56.688C88.5129 56.6453 88.6356 56.624 88.7423 56.624C89.2329 56.624 89.4783 56.8533 89.4783 57.312C89.4783 57.8133 89.1849 58.064 88.5983 58.064H88.5503C88.4649 58.064 88.3583 58.0587 88.2303 58.048C88.1129 58.0373 87.9743 58.0213 87.8143 58C87.5049 57.968 87.2863 57.952 87.1583 57.952C86.9556 57.952 86.7796 57.9573 86.6303 57.968C86.4809 57.968 86.3476 57.9733 86.2303 57.984L85.3663 58.064C84.7796 58.064 84.4863 57.8133 84.4863 57.312C84.4863 56.864 84.7636 56.64 85.3183 56.64C85.3716 56.64 85.4143 56.64 85.4463 56.64C85.4889 56.6293 85.5369 56.6347 85.5903 56.656L85.7823 56.704H85.9103C85.9209 56.7147 85.9369 56.72 85.9583 56.72H85.9743C86.0703 56.72 86.1236 56.56 86.1343 56.24C86.1343 56.112 86.1396 55.984 86.1503 55.856C86.1609 55.728 86.1663 55.6 86.1663 55.472L86.1183 52.032C86.0969 51.6373 86.0436 51.4133 85.9583 51.36C85.9369 51.36 85.8836 51.3653 85.7983 51.376C85.7129 51.3867 85.6543 51.392 85.6223 51.392H85.6543C85.5263 51.424 85.3929 51.44 85.2543 51.44C84.7529 51.44 84.5023 51.2053 84.5023 50.736C84.5023 50.2453 84.8009 50 85.3983 50C85.4196 50.0107 85.4836 50.0213 85.5903 50.032C85.6969 50.032 85.7929 50.0373 85.8783 50.048C85.9636 50.0587 86.0436 50.0693 86.1183 50.08C86.2036 50.08 86.2676 50.08 86.3103 50.08C86.3316 50.08 86.3583 50.08 86.3903 50.08C86.4329 50.08 86.4809 50.0747 86.5343 50.064C86.5556 50.064 86.5716 50.064 86.5823 50.064C86.6036 50.0533 86.6303 50.048 86.6623 50.048C86.7689 50.0267 86.8809 50.016 86.9983 50.016ZM109.754 49.744C110.34 49.744 110.836 49.8613 111.242 50.096C111.338 49.7973 111.572 49.648 111.946 49.648C112.447 49.648 112.698 49.8827 112.698 50.352C112.698 50.3733 112.692 50.3947 112.682 50.416C112.682 50.4373 112.682 50.4747 112.682 50.528C112.682 50.5707 112.676 50.624 112.666 50.688C112.666 50.7413 112.666 50.7947 112.666 50.848C112.644 50.944 112.628 51.04 112.618 51.136C112.607 51.232 112.602 51.3227 112.602 51.408C112.602 51.5467 112.618 51.712 112.65 51.904C112.671 52.0213 112.687 52.128 112.698 52.224C112.708 52.3093 112.714 52.3893 112.714 52.464C112.714 52.9973 112.463 53.264 111.962 53.264C111.471 53.264 111.215 53.0347 111.194 52.576L111.178 52.064C111.167 51.8187 111.018 51.6107 110.73 51.44C110.452 51.2587 110.116 51.168 109.722 51.168C109.338 51.168 109.012 51.264 108.746 51.456C108.479 51.648 108.346 51.8933 108.346 52.192C108.346 52.448 108.447 52.656 108.65 52.816C108.852 52.9653 109.119 53.072 109.45 53.136C109.599 53.1573 109.743 53.1787 109.882 53.2C110.031 53.2213 110.18 53.2427 110.33 53.264C112.207 53.52 113.146 54.2987 113.146 55.6C113.146 56.3787 112.831 57.0293 112.202 57.552C111.583 58.0213 110.804 58.256 109.866 58.256C109.162 58.256 108.522 58.096 107.946 57.776C107.892 58.1813 107.636 58.384 107.178 58.384C106.634 58.384 106.362 58.1067 106.362 57.552C106.383 57.392 106.399 57.264 106.41 57.168C106.431 57.072 106.447 56.9867 106.458 56.912C106.468 56.8373 106.474 56.7627 106.474 56.688C106.484 56.6027 106.49 56.4853 106.49 56.336C106.49 56.2187 106.479 56.096 106.458 55.968C106.447 55.8293 106.431 55.7013 106.41 55.584C106.378 55.4453 106.362 55.3013 106.362 55.152C106.362 54.6613 106.612 54.416 107.114 54.416C107.455 54.416 107.663 54.5067 107.738 54.688C107.812 54.848 107.855 55.1413 107.866 55.568C107.876 55.9413 108.074 56.2453 108.458 56.48C108.852 56.7147 109.364 56.832 109.994 56.832C110.41 56.832 110.751 56.7307 111.018 56.528C111.295 56.3147 111.434 56.0427 111.434 55.712C111.434 55.1467 110.964 54.816 110.026 54.72C109.471 54.656 108.98 54.576 108.554 54.48C108.127 54.3733 107.77 54.2347 107.482 54.064C107.194 53.8827 106.975 53.6533 106.826 53.376C106.676 53.0987 106.602 52.752 106.602 52.336C106.602 51.952 106.676 51.6 106.826 51.28C106.986 50.96 107.204 50.688 107.482 50.464C107.759 50.24 108.09 50.064 108.474 49.936C108.858 49.808 109.284 49.744 109.754 49.744ZM121.901 48.032L121.837 50.416C122.157 50.1707 122.471 50 122.781 49.904C123.101 49.7973 123.463 49.744 123.869 49.744C124.349 49.744 124.781 49.8133 125.165 49.952C125.549 50.0907 125.874 50.288 126.141 50.544C126.418 50.8 126.631 51.1093 126.781 51.472C126.93 51.824 127.005 52.2187 127.005 52.656V55.184C127.005 55.4933 127.005 55.7333 127.005 55.904C127.005 56.0747 127.01 56.1707 127.021 56.192C127.053 56.5333 127.101 56.704 127.165 56.704C127.197 56.704 127.234 56.704 127.277 56.704C127.319 56.704 127.373 56.6933 127.437 56.672C127.501 56.6507 127.554 56.64 127.597 56.64C127.639 56.64 127.693 56.64 127.757 56.64C128.301 56.64 128.573 56.8747 128.573 57.344C128.573 57.824 128.242 58.064 127.581 58.064C127.442 58.064 127.245 58.048 126.989 58.016C126.775 57.9947 126.583 57.9787 126.413 57.968C126.242 57.9467 126.098 57.936 125.981 57.936C125.874 57.936 125.767 57.9413 125.661 57.952C125.565 57.952 125.479 57.9573 125.405 57.968C124.999 58.032 124.727 58.064 124.589 58.064C124.333 58.064 124.119 57.9893 123.949 57.84C123.778 57.6907 123.693 57.504 123.693 57.28C123.693 57.0987 123.767 56.944 123.917 56.816C124.077 56.6773 124.263 56.608 124.477 56.608C124.605 56.608 124.765 56.64 124.957 56.704C124.978 56.704 125.005 56.7093 125.037 56.72C125.069 56.72 125.101 56.72 125.133 56.72C125.25 56.72 125.319 56.464 125.341 55.952C125.341 55.8987 125.341 55.808 125.341 55.68C125.341 55.552 125.346 55.4027 125.357 55.232C125.357 55.1467 125.357 55.04 125.357 54.912C125.367 54.784 125.373 54.6773 125.373 54.592V53.776C125.373 52.7947 125.282 52.1387 125.101 51.808C124.866 51.3493 124.429 51.12 123.789 51.12C123.085 51.12 122.573 51.36 122.253 51.84C122.039 52.1707 121.922 52.736 121.901 53.536C121.901 53.7173 121.895 53.8987 121.885 54.08C121.885 54.2613 121.885 54.4427 121.885 54.624C121.885 54.656 121.885 54.7093 121.885 54.784C121.885 54.848 121.879 54.9067 121.869 54.96V55.216C121.869 55.4933 121.869 55.7173 121.869 55.888C121.869 56.048 121.874 56.1493 121.885 56.192C121.917 56.5547 121.981 56.736 122.077 56.736C122.098 56.736 122.135 56.7307 122.189 56.72C122.242 56.7093 122.306 56.6987 122.381 56.688C122.434 56.6667 122.493 56.656 122.557 56.656C122.631 56.6453 122.69 56.64 122.733 56.64C123.234 56.64 123.485 56.864 123.485 57.312C123.485 57.8133 123.175 58.064 122.557 58.064C122.397 58.064 122.173 58.048 121.885 58.016C121.703 57.9947 121.533 57.9787 121.373 57.968C121.213 57.9573 121.069 57.952 120.941 57.952C120.781 57.952 120.551 57.968 120.253 58C120.039 58.0213 119.863 58.0373 119.725 58.048C119.597 58.0587 119.506 58.064 119.453 58.064C118.866 58.064 118.573 57.808 118.573 57.296C118.573 56.8587 118.85 56.64 119.405 56.64C119.554 56.64 119.671 56.6507 119.757 56.672H119.741C119.826 56.6933 119.895 56.704 119.949 56.704C120.002 56.704 120.039 56.704 120.061 56.704C120.082 56.704 120.098 56.6133 120.109 56.432C120.162 56.1547 120.199 55.536 120.221 54.576C120.221 54.128 120.221 53.6747 120.221 53.216C120.231 52.7573 120.237 52.304 120.237 51.856C120.237 50.3733 120.205 49.4293 120.141 49.024C120.109 48.768 120.061 48.6293 119.997 48.608C119.986 48.6187 119.949 48.6293 119.885 48.64C119.831 48.64 119.783 48.6453 119.741 48.656C119.677 48.6773 119.607 48.688 119.533 48.688C119.458 48.688 119.389 48.688 119.325 48.688C118.813 48.688 118.557 48.4587 118.557 48C118.557 47.7867 118.642 47.6107 118.813 47.472C118.983 47.3333 119.191 47.264 119.437 47.264C119.511 47.264 119.693 47.28 119.981 47.312H119.965C120.061 47.3227 120.157 47.3333 120.253 47.344C120.349 47.344 120.455 47.344 120.573 47.344C120.594 47.344 120.642 47.344 120.717 47.344C120.802 47.3333 120.882 47.3227 120.957 47.312C121.01 47.3013 121.063 47.296 121.117 47.296C121.181 47.2853 121.239 47.28 121.293 47.28C121.698 47.28 121.901 47.52 121.901 48V48.032ZM137.72 58.256C136.579 58.256 135.667 57.8667 134.984 57.088C134.301 56.3093 133.96 55.28 133.96 54C133.96 52.7093 134.301 51.6853 134.984 50.928C135.667 50.1387 136.595 49.744 137.768 49.744C138.941 49.744 139.875 50.128 140.568 50.896C141.24 51.6533 141.576 52.672 141.576 53.952C141.576 55.2533 141.229 56.288 140.536 57.056C139.843 57.856 138.904 58.256 137.72 58.256ZM137.8 51.168C137.16 51.168 136.659 51.3973 136.296 51.856C135.944 52.3147 135.752 52.9707 135.72 53.824V54C135.72 54.8853 135.896 55.5787 136.248 56.08C136.6 56.5813 137.096 56.832 137.736 56.832C138.387 56.832 138.899 56.5867 139.272 56.096C139.656 55.5947 139.848 54.8907 139.848 53.984C139.848 52.1067 139.165 51.168 137.8 51.168ZM149.703 50.016C150.065 50.016 150.273 50.176 150.327 50.496C150.892 49.9947 151.58 49.744 152.391 49.744C152.935 49.744 153.425 49.84 153.863 50.032C154.3 50.224 154.673 50.496 154.983 50.848C155.303 51.2 155.543 51.632 155.703 52.144C155.873 52.6453 155.959 53.2107 155.959 53.84C155.959 54.48 155.863 55.072 155.671 55.616C155.489 56.16 155.244 56.6347 154.935 57.04C154.604 57.4453 154.209 57.7493 153.751 57.952C153.292 58.1547 152.78 58.256 152.215 58.256C151.479 58.256 150.855 58.064 150.343 57.68V58.384C150.343 58.5653 150.343 58.7147 150.343 58.832C150.343 58.9493 150.348 59.0347 150.359 59.088V59.072C150.401 59.2747 150.465 59.376 150.551 59.376C150.593 59.376 150.668 59.3653 150.775 59.344C150.849 59.3333 150.94 59.3227 151.047 59.312C151.164 59.3013 151.217 59.296 151.207 59.296C151.687 59.296 151.927 59.5307 151.927 60C151.927 60.48 151.628 60.72 151.031 60.72C150.945 60.72 150.839 60.7147 150.711 60.704C150.593 60.6933 150.46 60.6773 150.311 60.656H150.327C150.081 60.624 149.756 60.608 149.351 60.608C149.244 60.608 149.143 60.608 149.047 60.608C148.951 60.6187 148.86 60.6293 148.775 60.64C148.753 60.64 148.732 60.64 148.711 60.64C148.7 60.6507 148.684 60.656 148.663 60.656C148.503 60.6773 148.359 60.6933 148.231 60.704C148.103 60.7147 148.007 60.72 147.943 60.72C147.697 60.72 147.489 60.6453 147.319 60.496C147.148 60.3573 147.062 60.1813 147.062 59.968C147.062 59.5093 147.319 59.28 147.831 59.28C147.884 59.28 147.937 59.28 147.991 59.28C148.055 59.2907 148.119 59.3013 148.183 59.312C148.321 59.3547 148.428 59.376 148.503 59.376C148.545 59.376 148.577 59.3333 148.599 59.248C148.62 59.1307 148.636 58.9387 148.647 58.672C148.657 58.416 148.668 58.0747 148.679 57.648C148.679 56.6773 148.679 55.7067 148.679 54.736C148.689 53.7547 148.695 52.7787 148.695 51.808C148.684 51.4773 148.641 51.312 148.567 51.312C148.513 51.312 148.433 51.328 148.327 51.36C148.252 51.3813 148.183 51.3973 148.118 51.408C148.055 51.4187 147.98 51.424 147.895 51.424C147.351 51.424 147.079 51.184 147.079 50.704C147.079 50.2453 147.388 50.016 148.007 50.016C148.06 50.016 148.124 50.016 148.199 50.016C148.273 50.016 148.337 50.0213 148.391 50.032C148.433 50.032 148.471 50.0373 148.503 50.048C148.545 50.048 148.583 50.048 148.615 50.048C148.689 50.0587 148.748 50.064 148.791 50.064C148.844 50.064 148.887 50.064 148.919 50.064C148.951 50.064 149.004 50.064 149.079 50.064C149.153 50.0533 149.228 50.0427 149.303 50.032C149.388 50.0213 149.463 50.016 149.527 50.016C149.591 50.016 149.649 50.016 149.703 50.016ZM150.567 52.544C150.513 52.7573 150.476 52.9813 150.455 53.216C150.433 53.44 150.417 53.68 150.407 53.936C150.407 53.968 150.407 54.0107 150.407 54.064C150.407 54.1067 150.401 54.1493 150.391 54.192V54.384C150.391 54.7147 150.401 54.9973 150.423 55.232C150.455 55.4667 150.497 55.6587 150.551 55.808C150.593 55.9467 150.663 56.0747 150.759 56.192C150.865 56.3093 150.983 56.416 151.111 56.512C151.26 56.608 151.425 56.688 151.607 56.752C151.788 56.8053 151.98 56.832 152.183 56.832C152.833 56.832 153.335 56.5867 153.687 56.096C154.039 55.6053 154.215 54.9013 154.215 53.984C154.215 52.1067 153.585 51.168 152.327 51.168C151.911 51.168 151.532 51.296 151.191 51.552C150.86 51.808 150.652 52.1387 150.567 52.544Z" fill="black"/>
</svg>
