<svg width="20" height="20" viewBox="0 0 20 20" fill="none" xmlns="http://www.w3.org/2000/svg">
<path d="M10.3881 0C6.31421 0 3 3.31421 3 7.38809C3 8.72925 3.60148 10.1717 3.62668 10.2325C3.82095 10.6936 4.20426 11.4098 4.48066 11.8296L9.54628 19.505C9.75359 19.8196 10.0604 20 10.3881 20C10.7158 20 11.0226 19.8196 11.2299 19.5054L16.296 11.8296C16.5728 11.4098 16.9557 10.6936 17.1499 10.2325C17.1751 10.1721 17.7762 8.72968 17.7762 7.38809C17.7762 3.31421 14.462 0 10.3881 0ZM16.3485 9.89526C16.1751 10.3086 15.8183 10.9748 15.5702 11.3512L10.5041 19.0269C10.4042 19.1786 10.3724 19.1786 10.2725 19.0269L5.20643 11.3512C4.95828 10.9748 4.60148 10.3081 4.42807 9.89483C4.42069 9.87701 3.86919 8.54933 3.86919 7.38809C3.86919 3.79357 6.79357 0.869187 10.3881 0.869187C13.9826 0.869187 16.907 3.79357 16.907 7.38809C16.907 8.55106 16.3542 9.88223 16.3485 9.89526Z" fill="#D98F38"/>
<path d="M10.3879 3.47729C8.23102 3.47729 6.47656 5.23219 6.47656 7.38864C6.47656 9.5451 8.23102 11.3 10.3879 11.3C12.5448 11.3 14.2992 9.5451 14.2992 7.38864C14.2992 5.23219 12.5448 3.47729 10.3879 3.47729ZM10.3879 10.4308C8.71081 10.4308 7.34575 9.06617 7.34575 7.38864C7.34575 5.71111 8.71081 4.34648 10.3879 4.34648C12.065 4.34648 13.4301 5.71111 13.4301 7.38864C13.4301 9.06617 12.065 10.4308 10.3879 10.4308Z" fill="#D98F38"/>
</svg>
