<svg width="20" height="20" viewBox="0 0 20 20" fill="none" xmlns="http://www.w3.org/2000/svg">
<path d="M4.05291 13.2598C6.03304 15.5718 8.41667 17.3922 11.1373 18.6802C12.1731 19.1597 13.5583 19.7286 15.1017 19.8261C15.1974 19.8302 15.2889 19.8342 15.3846 19.8342C16.4204 19.8342 17.2524 19.4848 17.9304 18.7656C17.9346 18.7615 17.9429 18.7534 17.9471 18.7453C18.1883 18.4608 18.4629 18.2048 18.7499 17.9326C18.9455 17.7497 19.1451 17.5588 19.3365 17.3637C20.2226 16.4617 20.2226 15.3158 19.3282 14.4422L16.828 12.0001C16.4037 11.5694 15.8962 11.3419 15.3638 11.3419C14.8313 11.3419 14.3196 11.5694 13.8828 11.9961L12.3936 13.4507C12.2563 13.3735 12.1149 13.3045 11.9817 13.2394C11.8153 13.1582 11.6614 13.081 11.5241 12.9956C10.168 12.1545 8.93667 11.0574 7.75941 9.64747C7.16454 8.912 6.76518 8.29438 6.48647 7.66456C6.8775 7.31918 7.24358 6.95754 7.59717 6.60403C7.72197 6.47807 7.85092 6.35211 7.97988 6.22614C8.42915 5.7873 8.67043 5.27939 8.67043 4.76335C8.67043 4.2473 8.43331 3.73939 7.97988 3.30055L6.74022 2.08968C6.59463 1.94746 6.45735 1.80931 6.31591 1.66709C6.04136 1.39078 5.75432 1.10635 5.47145 0.850362C5.04297 0.439966 4.53962 0.224609 4.00715 0.224609C3.47884 0.224609 2.97133 0.439966 2.52622 0.854425L0.970403 2.37411C0.404653 2.92672 0.084338 3.59717 0.0177792 4.37327C-0.0612595 5.3444 0.121777 6.37649 0.596009 7.62393C1.324 9.55401 2.42222 11.3459 4.05291 13.2598ZM1.0328 4.4586C1.08272 3.91817 1.29488 3.46714 1.69423 3.07707L3.24172 1.56551C3.483 1.33796 3.74924 1.22012 4.00715 1.22012C4.26091 1.22012 4.51882 1.33796 4.75594 1.57363C5.03465 1.82556 5.29673 2.08968 5.5796 2.37005C5.72104 2.51226 5.86664 2.65448 6.01224 2.80076L7.25189 4.01163C7.50981 4.26356 7.64293 4.51955 7.64293 4.77147C7.64293 5.0234 7.50981 5.27939 7.25189 5.53132C7.12294 5.65728 6.99398 5.78731 6.86502 5.91327C6.47815 6.29522 6.11623 6.65686 5.71688 7.00224C5.70856 7.01037 5.7044 7.01443 5.69608 7.02256C5.35081 7.35981 5.40489 7.68082 5.48809 7.92462C5.49225 7.93681 5.49641 7.94493 5.50057 7.95712C5.82088 8.70884 6.26599 9.42398 6.9607 10.2773C8.20868 11.7807 9.52322 12.9469 10.9709 13.8449C11.1497 13.9587 11.3411 14.048 11.52 14.1374C11.6864 14.2187 11.8403 14.2959 11.9776 14.3812C11.9942 14.3894 12.0067 14.3975 12.0233 14.4056C12.1606 14.4747 12.2937 14.5072 12.4268 14.5072C12.7596 14.5072 12.976 14.3 13.0467 14.2309L14.6025 12.7112C14.8438 12.4755 15.1058 12.3496 15.3638 12.3496C15.6799 12.3496 15.9378 12.5406 16.1001 12.7112L18.6085 15.1573C19.1077 15.6449 19.1035 16.1732 18.596 16.6892C18.4213 16.8721 18.2383 17.0468 18.0427 17.2296C17.7516 17.5059 17.4479 17.7904 17.1733 18.1114C16.6949 18.6152 16.125 18.8509 15.3887 18.8509C15.318 18.8509 15.2431 18.8468 15.1724 18.8428C13.8079 18.7574 12.5392 18.2373 11.5865 17.7944C8.99906 16.5714 6.72774 14.8363 4.8433 12.634C3.29164 10.8096 2.2475 9.11111 1.55695 7.29074C1.12848 6.17332 0.966243 5.27533 1.0328 4.4586Z" fill="#D98F38"/>
</svg>
