<?xml version="1.0" encoding="UTF-8"?>
<svg xmlns="http://www.w3.org/2000/svg" xmlns:xlink="http://www.w3.org/1999/xlink" fill="#D98F38" width="42px" height="42px" viewBox="0 0 42 42" version="1.1">
<g id="surface1">
<path d="M 31.078125 24.132812 C 30.996094 24.09375 27.933594 22.585938 27.390625 22.390625 C 27.167969 22.3125 26.929688 22.234375 26.675781 22.234375 C 26.261719 22.234375 25.917969 22.4375 25.644531 22.84375 C 25.339844 23.296875 24.414062 24.382812 24.128906 24.703125 C 24.089844 24.746094 24.039062 24.796875 24.007812 24.796875 C 23.980469 24.796875 23.507812 24.601562 23.363281 24.539062 C 20.078125 23.113281 17.585938 19.683594 17.246094 19.105469 C 17.195312 19.019531 17.195312 18.984375 17.191406 18.984375 C 17.207031 18.9375 17.316406 18.828125 17.371094 18.769531 C 17.539062 18.605469 17.71875 18.390625 17.894531 18.179688 C 17.976562 18.078125 18.058594 17.980469 18.140625 17.886719 C 18.394531 17.589844 18.507812 17.359375 18.640625 17.09375 L 18.707031 16.957031 C 19.027344 16.324219 18.753906 15.785156 18.667969 15.613281 C 18.59375 15.46875 17.300781 12.347656 17.164062 12.019531 C 16.832031 11.230469 16.394531 10.859375 15.789062 10.859375 C 15.734375 10.859375 15.789062 10.859375 15.554688 10.871094 C 15.265625 10.882812 13.699219 11.089844 13.007812 11.527344 C 12.273438 11.988281 11.03125 13.464844 11.03125 16.058594 C 11.03125 18.394531 12.511719 20.601562 13.148438 21.441406 C 13.164062 21.460938 13.195312 21.503906 13.234375 21.566406 C 15.671875 25.125 18.710938 27.761719 21.792969 28.992188 C 24.757812 30.175781 26.160156 30.316406 26.960938 30.316406 C 27.296875 30.316406 27.5625 30.289062 27.800781 30.265625 L 27.949219 30.25 C 28.976562 30.160156 31.226562 28.992188 31.738281 27.570312 C 32.140625 26.449219 32.246094 25.226562 31.980469 24.78125 C 31.796875 24.476562 31.480469 24.328125 31.078125 24.132812 Z M 31.078125 24.132812 "/>
<path d="M 21.371094 0 C 9.996094 0 0.742188 9.183594 0.742188 20.472656 C 0.742188 24.125 1.722656 27.699219 3.570312 30.828125 L 0.0273438 41.28125 C -0.0390625 41.472656 0.0117188 41.691406 0.15625 41.835938 C 0.300781 41.984375 0.515625 42.035156 0.710938 41.972656 L 11.609375 38.511719 C 14.589844 40.105469 17.960938 40.945312 21.371094 40.945312 C 32.746094 40.945312 42 31.761719 42 20.472656 C 42 9.183594 32.746094 0 21.371094 0 Z M 21.371094 36.679688 C 18.164062 36.679688 15.054688 35.753906 12.382812 34 C 12.246094 33.910156 12.074219 33.886719 11.917969 33.9375 L 6.457031 35.671875 L 8.21875 30.472656 C 8.277344 30.304688 8.25 30.117188 8.144531 29.976562 C 6.109375 27.195312 5.03125 23.910156 5.03125 20.472656 C 5.03125 11.535156 12.363281 4.265625 21.371094 4.265625 C 30.382812 4.265625 37.710938 11.535156 37.710938 20.472656 C 37.710938 29.410156 30.382812 36.679688 21.371094 36.679688 Z M 21.371094 36.679688 "/>
</g>
</svg>
