<svg width="49" height="34" viewBox="0 0 49 34" fill="none" xmlns="http://www.w3.org/2000/svg">
<path d="M47.252 5.61133C46.7246 3.50195 45.0547 1.83203 43.0332 1.30469C39.2539 0.25 24.3125 0.25 24.3125 0.25C24.3125 0.25 9.2832 0.25 5.50391 1.30469C3.48242 1.83203 1.8125 3.50195 1.28516 5.61133C0.230469 9.30273 0.230469 17.2129 0.230469 17.2129C0.230469 17.2129 0.230469 25.0352 1.28516 28.8145C1.8125 30.9238 3.48242 32.5059 5.50391 33.0332C9.2832 34 24.3125 34 24.3125 34C24.3125 34 39.2539 34 43.0332 33.0332C45.0547 32.5059 46.7246 30.9238 47.252 28.8145C48.3066 25.0352 48.3066 17.2129 48.3066 17.2129C48.3066 17.2129 48.3066 9.30273 47.252 5.61133ZM19.3906 24.332V10.0938L31.8711 17.2129L19.3906 24.332Z" fill="#D98F38"/>
</svg>
